%TF.GenerationSoftware,KiCad,Pcbnew,9.0.0*%
%TF.CreationDate,2026-01-06T01:29:00-05:00*%
%TF.ProjectId,NanoFreak,4e616e6f-4672-4656-916b-2e6b69636164,rev?*%
%TF.SameCoordinates,Original*%
%TF.FileFunction,Copper,L1,Top*%
%TF.FilePolarity,Positive*%
%FSLAX46Y46*%
G04 Gerber Fmt 4.6, Leading zero omitted, Abs format (unit mm)*
G04 Created by KiCad (PCBNEW 9.0.0) date 2026-01-06 01:29:00*
%MOMM*%
%LPD*%
G01*
G04 APERTURE LIST*
G04 Aperture macros list*
%AMRoundRect*
0 Rectangle with rounded corners*
0 $1 Rounding radius*
0 $2 $3 $4 $5 $6 $7 $8 $9 X,Y pos of 4 corners*
0 Add a 4 corners polygon primitive as box body*
4,1,4,$2,$3,$4,$5,$6,$7,$8,$9,$2,$3,0*
0 Add four circle primitives for the rounded corners*
1,1,$1+$1,$2,$3*
1,1,$1+$1,$4,$5*
1,1,$1+$1,$6,$7*
1,1,$1+$1,$8,$9*
0 Add four rect primitives between the rounded corners*
20,1,$1+$1,$2,$3,$4,$5,0*
20,1,$1+$1,$4,$5,$6,$7,0*
20,1,$1+$1,$6,$7,$8,$9,0*
20,1,$1+$1,$8,$9,$2,$3,0*%
%AMFreePoly0*
4,1,9,3.862500,-0.866500,0.737500,-0.866500,0.737500,-0.450000,-0.737500,-0.450000,-0.737500,0.450000,0.737500,0.450000,0.737500,0.866500,3.862500,0.866500,3.862500,-0.866500,3.862500,-0.866500,$1*%
G04 Aperture macros list end*
%TA.AperFunction,SMDPad,CuDef*%
%ADD10RoundRect,0.200000X0.200000X0.275000X-0.200000X0.275000X-0.200000X-0.275000X0.200000X-0.275000X0*%
%TD*%
%TA.AperFunction,ComponentPad*%
%ADD11C,2.200000*%
%TD*%
%TA.AperFunction,SMDPad,CuDef*%
%ADD12RoundRect,0.200000X0.275000X-0.200000X0.275000X0.200000X-0.275000X0.200000X-0.275000X-0.200000X0*%
%TD*%
%TA.AperFunction,ComponentPad*%
%ADD13R,2.000000X2.000000*%
%TD*%
%TA.AperFunction,ComponentPad*%
%ADD14C,2.000000*%
%TD*%
%TA.AperFunction,ComponentPad*%
%ADD15R,3.200000X2.000000*%
%TD*%
%TA.AperFunction,SMDPad,CuDef*%
%ADD16RoundRect,0.200000X-0.200000X-0.275000X0.200000X-0.275000X0.200000X0.275000X-0.200000X0.275000X0*%
%TD*%
%TA.AperFunction,SMDPad,CuDef*%
%ADD17RoundRect,0.150000X0.875000X0.150000X-0.875000X0.150000X-0.875000X-0.150000X0.875000X-0.150000X0*%
%TD*%
%TA.AperFunction,SMDPad,CuDef*%
%ADD18RoundRect,0.100000X-0.637500X-0.100000X0.637500X-0.100000X0.637500X0.100000X-0.637500X0.100000X0*%
%TD*%
%TA.AperFunction,SMDPad,CuDef*%
%ADD19RoundRect,0.237500X-0.237500X0.300000X-0.237500X-0.300000X0.237500X-0.300000X0.237500X0.300000X0*%
%TD*%
%TA.AperFunction,SMDPad,CuDef*%
%ADD20RoundRect,0.237500X0.300000X0.237500X-0.300000X0.237500X-0.300000X-0.237500X0.300000X-0.237500X0*%
%TD*%
%TA.AperFunction,SMDPad,CuDef*%
%ADD21RoundRect,0.237500X0.237500X-0.287500X0.237500X0.287500X-0.237500X0.287500X-0.237500X-0.287500X0*%
%TD*%
%TA.AperFunction,SMDPad,CuDef*%
%ADD22RoundRect,0.237500X-0.237500X0.287500X-0.237500X-0.287500X0.237500X-0.287500X0.237500X0.287500X0*%
%TD*%
%TA.AperFunction,ComponentPad*%
%ADD23R,1.800000X1.800000*%
%TD*%
%TA.AperFunction,ComponentPad*%
%ADD24C,1.800000*%
%TD*%
%TA.AperFunction,SMDPad,CuDef*%
%ADD25R,0.900000X1.000000*%
%TD*%
%TA.AperFunction,SMDPad,CuDef*%
%ADD26RoundRect,0.200000X-0.275000X0.200000X-0.275000X-0.200000X0.275000X-0.200000X0.275000X0.200000X0*%
%TD*%
%TA.AperFunction,SMDPad,CuDef*%
%ADD27RoundRect,0.225000X0.225000X-0.425000X0.225000X0.425000X-0.225000X0.425000X-0.225000X-0.425000X0*%
%TD*%
%TA.AperFunction,SMDPad,CuDef*%
%ADD28FreePoly0,90.000000*%
%TD*%
%TA.AperFunction,SMDPad,CuDef*%
%ADD29RoundRect,0.237500X-0.300000X-0.237500X0.300000X-0.237500X0.300000X0.237500X-0.300000X0.237500X0*%
%TD*%
%TA.AperFunction,SMDPad,CuDef*%
%ADD30R,0.700000X1.200000*%
%TD*%
%TA.AperFunction,SMDPad,CuDef*%
%ADD31R,1.000000X0.800000*%
%TD*%
%TA.AperFunction,SMDPad,CuDef*%
%ADD32R,1.000000X1.200000*%
%TD*%
%TA.AperFunction,SMDPad,CuDef*%
%ADD33R,1.000000X2.800000*%
%TD*%
%TA.AperFunction,SMDPad,CuDef*%
%ADD34R,1.300000X1.900000*%
%TD*%
%TA.AperFunction,SMDPad,CuDef*%
%ADD35R,1.000000X0.900000*%
%TD*%
%TA.AperFunction,SMDPad,CuDef*%
%ADD36RoundRect,0.062500X-0.350000X-0.062500X0.350000X-0.062500X0.350000X0.062500X-0.350000X0.062500X0*%
%TD*%
%TA.AperFunction,SMDPad,CuDef*%
%ADD37RoundRect,0.062500X-0.062500X-0.350000X0.062500X-0.350000X0.062500X0.350000X-0.062500X0.350000X0*%
%TD*%
%TA.AperFunction,HeatsinkPad*%
%ADD38R,2.500000X2.500000*%
%TD*%
%TA.AperFunction,ComponentPad*%
%ADD39R,2.000000X1.200000*%
%TD*%
%TA.AperFunction,ComponentPad*%
%ADD40O,2.000000X1.200000*%
%TD*%
%TA.AperFunction,SMDPad,CuDef*%
%ADD41RoundRect,0.237500X0.250000X0.237500X-0.250000X0.237500X-0.250000X-0.237500X0.250000X-0.237500X0*%
%TD*%
%TA.AperFunction,ComponentPad*%
%ADD42C,1.950000*%
%TD*%
%TA.AperFunction,ComponentPad*%
%ADD43C,2.400000*%
%TD*%
%TA.AperFunction,ComponentPad*%
%ADD44R,1.650000X1.650000*%
%TD*%
%TA.AperFunction,ComponentPad*%
%ADD45C,1.650000*%
%TD*%
%TA.AperFunction,SMDPad,CuDef*%
%ADD46R,0.700000X1.500000*%
%TD*%
%TA.AperFunction,WasherPad*%
%ADD47C,4.000000*%
%TD*%
%TA.AperFunction,ComponentPad*%
%ADD48RoundRect,0.190500X-0.762000X-0.444500X0.762000X-0.444500X0.762000X0.444500X-0.762000X0.444500X0*%
%TD*%
%TA.AperFunction,ComponentPad*%
%ADD49O,1.200000X2.200000*%
%TD*%
%TA.AperFunction,ComponentPad*%
%ADD50O,2.200000X1.200000*%
%TD*%
%TA.AperFunction,ComponentPad*%
%ADD51RoundRect,0.250000X0.550000X0.550000X-0.550000X0.550000X-0.550000X-0.550000X0.550000X-0.550000X0*%
%TD*%
%TA.AperFunction,ComponentPad*%
%ADD52C,1.600000*%
%TD*%
%TA.AperFunction,ViaPad*%
%ADD53C,0.600000*%
%TD*%
%TA.AperFunction,Conductor*%
%ADD54C,0.300000*%
%TD*%
%TA.AperFunction,Conductor*%
%ADD55C,0.200000*%
%TD*%
G04 APERTURE END LIST*
D10*
%TO.P,R9,1*%
%TO.N,LRCK*%
X165325000Y-44000000D03*
%TO.P,R9,2*%
%TO.N,Net-(U2-LRCK)*%
X163675000Y-44000000D03*
%TD*%
%TO.P,R16,1*%
%TO.N,GND*%
X91500000Y-34500000D03*
%TO.P,R16,2*%
%TO.N,Net-(U3-PROG1)*%
X89850000Y-34500000D03*
%TD*%
D11*
%TO.P,SW11,1,1*%
%TO.N,Net-(U5-GPB1)*%
X171540000Y-100420000D03*
%TO.P,SW11,2,2*%
%TO.N,GND*%
X165190000Y-102960000D03*
%TD*%
D12*
%TO.P,R18,1*%
%TO.N,+3.3V*%
X88000000Y-40650000D03*
%TO.P,R18,2*%
%TO.N,Net-(U3-CE)*%
X88000000Y-39000000D03*
%TD*%
D13*
%TO.P,RV2,1,1*%
%TO.N,GND*%
X150725000Y-67080000D03*
D14*
%TO.P,RV2,2,2*%
%TO.N,Decay*%
X150725000Y-69580000D03*
%TO.P,RV2,3,3*%
%TO.N,+3.3V*%
X150725000Y-72080000D03*
D15*
%TO.P,RV2,MP*%
%TO.N,N/C*%
X158225000Y-63980000D03*
X158225000Y-75180000D03*
%TD*%
D12*
%TO.P,R23,1*%
%TO.N,+3.3V*%
X107145000Y-42825000D03*
%TO.P,R23,2*%
%TO.N,CMD*%
X107145000Y-41175000D03*
%TD*%
D13*
%TO.P,RV5,1,1*%
%TO.N,GND*%
X108225000Y-60025000D03*
D14*
%TO.P,RV5,2,2*%
%TO.N,Cutoff*%
X108225000Y-62525000D03*
%TO.P,RV5,3,3*%
%TO.N,+3.3V*%
X108225000Y-65025000D03*
D15*
%TO.P,RV5,MP*%
%TO.N,N/C*%
X115725000Y-56925000D03*
X115725000Y-68125000D03*
%TD*%
D16*
%TO.P,R21,1*%
%TO.N,GND*%
X119350000Y-29500000D03*
%TO.P,R21,2*%
%TO.N,Net-(U4-VO1)*%
X121000000Y-29500000D03*
%TD*%
D17*
%TO.P,U5,1,GPB0*%
%TO.N,Net-(U5-GPB0)*%
X152530000Y-96390000D03*
%TO.P,U5,2,GPB1*%
%TO.N,Net-(U5-GPB1)*%
X152530000Y-95120000D03*
%TO.P,U5,3,GPB2*%
%TO.N,Net-(U5-GPB2)*%
X152530000Y-93850000D03*
%TO.P,U5,4,GPB3*%
%TO.N,Net-(U5-GPB3)*%
X152530000Y-92580000D03*
%TO.P,U5,5,GPB4*%
%TO.N,Net-(U5-GPB4)*%
X152530000Y-91310000D03*
%TO.P,U5,6,GPB5*%
%TO.N,Net-(U5-GPB5)*%
X152530000Y-90040000D03*
%TO.P,U5,7,GPB6*%
%TO.N,Net-(U5-GPB6)*%
X152530000Y-88770000D03*
%TO.P,U5,8,GPB7*%
%TO.N,Net-(U5-GPB7)*%
X152530000Y-87500000D03*
%TO.P,U5,9,VDD*%
%TO.N,+3.3V*%
X152530000Y-86230000D03*
%TO.P,U5,10,VSS*%
%TO.N,GND*%
X152530000Y-84960000D03*
%TO.P,U5,11,NC*%
%TO.N,unconnected-(U5-NC-Pad11)*%
X152530000Y-83690000D03*
%TO.P,U5,12,SCK*%
%TO.N,I2C SCK*%
X152530000Y-82420000D03*
%TO.P,U5,13,SDA*%
%TO.N,I2C SDA*%
X152530000Y-81150000D03*
%TO.P,U5,14,NC*%
%TO.N,unconnected-(U5-NC-Pad14)*%
X152530000Y-79880000D03*
%TO.P,U5,15,A0*%
%TO.N,Net-(U5-A0)*%
X143230000Y-79880000D03*
%TO.P,U5,16,A1*%
%TO.N,Net-(U5-A1)*%
X143230000Y-81150000D03*
%TO.P,U5,17,A2*%
%TO.N,Net-(U5-A2)*%
X143230000Y-82420000D03*
%TO.P,U5,18,~{RESET}*%
%TO.N,Net-(U5-INTA)*%
X143230000Y-83690000D03*
%TO.P,U5,19,INTB*%
X143230000Y-84960000D03*
%TO.P,U5,20,INTA*%
X143230000Y-86230000D03*
%TO.P,U5,21,GPA0*%
%TO.N,Net-(U5-GPA0)*%
X143230000Y-87500000D03*
%TO.P,U5,22,GPA1*%
%TO.N,Net-(U5-GPA1)*%
X143230000Y-88770000D03*
%TO.P,U5,23,GPA2*%
%TO.N,Net-(U5-GPA2)*%
X143230000Y-90040000D03*
%TO.P,U5,24,GPA3*%
%TO.N,Net-(U5-GPA3)*%
X143230000Y-91310000D03*
%TO.P,U5,25,GPA4*%
%TO.N,Net-(U5-GPA4)*%
X143230000Y-92580000D03*
%TO.P,U5,26,GPA5*%
%TO.N,Net-(U5-GPA5)*%
X143230000Y-93850000D03*
%TO.P,U5,27,GPA6*%
%TO.N,Net-(U5-GPA6)*%
X143230000Y-95120000D03*
%TO.P,U5,28,GPA7*%
%TO.N,Net-(U5-GPA7)*%
X143230000Y-96390000D03*
%TD*%
D18*
%TO.P,U2,1,CPVDD*%
%TO.N,+3.3V*%
X155137500Y-39575000D03*
%TO.P,U2,2,CAPP*%
%TO.N,Net-(U2-CAPP)*%
X155137500Y-40225000D03*
%TO.P,U2,3,CPGND*%
%TO.N,GND*%
X155137500Y-40875000D03*
%TO.P,U2,4,CAPM*%
%TO.N,Net-(U2-CAPM)*%
X155137500Y-41525000D03*
%TO.P,U2,5,VNEG*%
%TO.N,Net-(U2-VNEG)*%
X155137500Y-42175000D03*
%TO.P,U2,6,OUTL*%
%TO.N,Net-(U2-OUTL)*%
X155137500Y-42825000D03*
%TO.P,U2,7,OUTR*%
%TO.N,Net-(U2-OUTR)*%
X155137500Y-43475000D03*
%TO.P,U2,8,AVDD*%
%TO.N,+3.3V*%
X155137500Y-44125000D03*
%TO.P,U2,9,AGND*%
%TO.N,GND*%
X155137500Y-44775000D03*
%TO.P,U2,10,DEMP*%
X155137500Y-45425000D03*
%TO.P,U2,11,FLT*%
X160862500Y-45425000D03*
%TO.P,U2,12,SCK*%
X160862500Y-44775000D03*
%TO.P,U2,13,BCK*%
%TO.N,Net-(U2-BCK)*%
X160862500Y-44125000D03*
%TO.P,U2,14,DIN*%
%TO.N,Net-(U2-DIN)*%
X160862500Y-43475000D03*
%TO.P,U2,15,LRCK*%
%TO.N,Net-(U2-LRCK)*%
X160862500Y-42825000D03*
%TO.P,U2,16,FMT*%
%TO.N,GND*%
X160862500Y-42175000D03*
%TO.P,U2,17,XSMT*%
%TO.N,Net-(U2-XSMT)*%
X160862500Y-41525000D03*
%TO.P,U2,18,LDOO*%
%TO.N,Net-(U2-LDOO)*%
X160862500Y-40875000D03*
%TO.P,U2,19,DGND*%
%TO.N,GND*%
X160862500Y-40225000D03*
%TO.P,U2,20,DVDD*%
%TO.N,+3.3V*%
X160862500Y-39575000D03*
%TD*%
D19*
%TO.P,C9,1*%
%TO.N,GND*%
X152500000Y-36137500D03*
%TO.P,C9,2*%
%TO.N,+3.3V*%
X152500000Y-37862500D03*
%TD*%
%TO.P,C4,1*%
%TO.N,Net-(C4-Pad1)*%
X155000000Y-36137500D03*
%TO.P,C4,2*%
%TO.N,GND*%
X155000000Y-37862500D03*
%TD*%
D12*
%TO.P,R26,1*%
%TO.N,+3.3V*%
X104145000Y-42825000D03*
%TO.P,R26,2*%
%TO.N,Net-(J3-DAT2)*%
X104145000Y-41175000D03*
%TD*%
D20*
%TO.P,C8,1*%
%TO.N,Net-(U2-VNEG)*%
X152362500Y-41500000D03*
%TO.P,C8,2*%
%TO.N,GND*%
X150637500Y-41500000D03*
%TD*%
D11*
%TO.P,SW12,1,1*%
%TO.N,Net-(U5-GPB0)*%
X184290000Y-120880000D03*
%TO.P,SW12,2,2*%
%TO.N,GND*%
X177940000Y-123420000D03*
%TD*%
D21*
%TO.P,D4,1,K*%
%TO.N,Net-(D4-K)*%
X135500000Y-29000000D03*
%TO.P,D4,2,A*%
%TO.N,Net-(D4-A)*%
X135500000Y-27250000D03*
%TD*%
D22*
%TO.P,D1,1,K*%
%TO.N,Net-(D1-K)*%
X83000000Y-42750000D03*
%TO.P,D1,2,A*%
%TO.N,+5V*%
X83000000Y-44500000D03*
%TD*%
D16*
%TO.P,R3,1*%
%TO.N,GND*%
X138380000Y-82635000D03*
%TO.P,R3,2*%
%TO.N,Net-(U5-A2)*%
X140030000Y-82635000D03*
%TD*%
D11*
%TO.P,SW14,1,1*%
%TO.N,Net-(U5-GPB2)*%
X206790000Y-120880000D03*
%TO.P,SW14,2,2*%
%TO.N,GND*%
X200440000Y-123420000D03*
%TD*%
D23*
%TO.P,D7,1,K*%
%TO.N,GND*%
X91230000Y-63440000D03*
D24*
%TO.P,D7,2,A*%
%TO.N,Net-(D7-A)*%
X93770000Y-63440000D03*
%TD*%
D13*
%TO.P,RV3,1,1*%
%TO.N,GND*%
X170225000Y-67080000D03*
D14*
%TO.P,RV3,2,2*%
%TO.N,Sustain*%
X170225000Y-69580000D03*
%TO.P,RV3,3,3*%
%TO.N,+3.3V*%
X170225000Y-72080000D03*
D15*
%TO.P,RV3,MP*%
%TO.N,N/C*%
X177725000Y-63980000D03*
X177725000Y-75180000D03*
%TD*%
D25*
%TO.P,SW17,1,1*%
%TO.N,Net-(U5-GPB6)*%
X79450000Y-57200000D03*
X83550000Y-57200000D03*
%TO.P,SW17,2,2*%
%TO.N,GND*%
X79450000Y-58800000D03*
X83550000Y-58800000D03*
%TD*%
D20*
%TO.P,C2,1*%
%TO.N,+3.3V*%
X157605000Y-85135000D03*
%TO.P,C2,2*%
%TO.N,GND*%
X155880000Y-85135000D03*
%TD*%
D12*
%TO.P,R27,1*%
%TO.N,+3.3V*%
X112645000Y-42825000D03*
%TO.P,R27,2*%
%TO.N,Net-(J3-DAT1)*%
X112645000Y-41175000D03*
%TD*%
D25*
%TO.P,SW4,1,1*%
%TO.N,OCT -*%
X79450000Y-81500000D03*
X83550000Y-81500000D03*
%TO.P,SW4,2,2*%
%TO.N,GND*%
X79450000Y-83100000D03*
X83550000Y-83100000D03*
%TD*%
D16*
%TO.P,R28,1*%
%TO.N,Net-(D6-A)*%
X97120000Y-58000000D03*
%TO.P,R28,2*%
%TO.N,Net-(U5-GPA6)*%
X98770000Y-58000000D03*
%TD*%
D26*
%TO.P,R15,1*%
%TO.N,Net-(U3-~{PG})*%
X83500000Y-39000000D03*
%TO.P,R15,2*%
%TO.N,Net-(D1-K)*%
X83500000Y-40650000D03*
%TD*%
D13*
%TO.P,RV4,1,1*%
%TO.N,GND*%
X189725000Y-67080000D03*
D14*
%TO.P,RV4,2,2*%
%TO.N,Release*%
X189725000Y-69580000D03*
%TO.P,RV4,3,3*%
%TO.N,+3.3V*%
X189725000Y-72080000D03*
D15*
%TO.P,RV4,MP*%
%TO.N,N/C*%
X197225000Y-63980000D03*
X197225000Y-75180000D03*
%TD*%
D26*
%TO.P,R25,1*%
%TO.N,DAT0*%
X111145000Y-41175000D03*
%TO.P,R25,2*%
%TO.N,+3.3V*%
X111145000Y-42825000D03*
%TD*%
D20*
%TO.P,C13,1*%
%TO.N,Net-(U6-VI)*%
X83500000Y-28775000D03*
%TO.P,C13,2*%
%TO.N,GND*%
X81775000Y-28775000D03*
%TD*%
D26*
%TO.P,R13,1*%
%TO.N,Net-(U3-STAT2)*%
X85000000Y-39000000D03*
%TO.P,R13,2*%
%TO.N,Net-(D3-K)*%
X85000000Y-40650000D03*
%TD*%
D27*
%TO.P,U6,1,GND*%
%TO.N,GND*%
X82000000Y-26725000D03*
D28*
%TO.P,U6,2,VI*%
%TO.N,Net-(U6-VI)*%
X83500000Y-26637500D03*
D27*
%TO.P,U6,3,VO*%
%TO.N,+3.3V*%
X85000000Y-26725000D03*
%TD*%
D29*
%TO.P,C10,1*%
%TO.N,+3.3V*%
X163637500Y-39000000D03*
%TO.P,C10,2*%
%TO.N,GND*%
X165362500Y-39000000D03*
%TD*%
D11*
%TO.P,SW5,1,1*%
%TO.N,Net-(U5-GPA3)*%
X94290000Y-120880000D03*
%TO.P,SW5,2,2*%
%TO.N,GND*%
X87940000Y-123420000D03*
%TD*%
D30*
%TO.P,J3,1,DAT2*%
%TO.N,Net-(J3-DAT2)*%
X104900000Y-37690000D03*
%TO.P,J3,2,DAT3/CD*%
%TO.N,Net-(J3-DAT3{slash}CD)*%
X106000000Y-37690000D03*
%TO.P,J3,3,CMD*%
%TO.N,CMD*%
X107100000Y-37690000D03*
%TO.P,J3,4,VDD*%
%TO.N,+3.3V*%
X108200000Y-37690000D03*
%TO.P,J3,5,CLK*%
%TO.N,CLK*%
X109300000Y-37690000D03*
%TO.P,J3,6,VSS*%
%TO.N,GND*%
X110400000Y-37690000D03*
%TO.P,J3,7,DAT0*%
%TO.N,DAT0*%
X111500000Y-37690000D03*
%TO.P,J3,8,DAT1*%
%TO.N,Net-(J3-DAT1)*%
X112600000Y-37690000D03*
%TO.P,J3,9,SHIELD*%
%TO.N,GND*%
X113550000Y-37690000D03*
D31*
%TO.P,J3,10*%
%TO.N,N/C*%
X114500000Y-27190000D03*
D32*
%TO.P,J3,11*%
X114500000Y-33390000D03*
D33*
X114500000Y-23040000D03*
D32*
X103350000Y-37690000D03*
D34*
X101000000Y-22590000D03*
%TD*%
D20*
%TO.P,C1,1*%
%TO.N,Net-(U5-INTA)*%
X140105000Y-85635000D03*
%TO.P,C1,2*%
%TO.N,GND*%
X138380000Y-85635000D03*
%TD*%
D16*
%TO.P,R20,1*%
%TO.N,+3.3V*%
X119350000Y-27500000D03*
%TO.P,R20,2*%
%TO.N,MIDI IN*%
X121000000Y-27500000D03*
%TD*%
D22*
%TO.P,D2,1,K*%
%TO.N,Net-(D2-K)*%
X87000000Y-42750000D03*
%TO.P,D2,2,A*%
%TO.N,+5V*%
X87000000Y-44500000D03*
%TD*%
D35*
%TO.P,SW3,1,1*%
%TO.N,Shift Key*%
X230150000Y-48850000D03*
X230150000Y-44750000D03*
%TO.P,SW3,2,2*%
%TO.N,GND*%
X231750000Y-48850000D03*
X231750000Y-44750000D03*
%TD*%
D12*
%TO.P,R19,1*%
%TO.N,Net-(J2-PadT)*%
X135500000Y-33150000D03*
%TO.P,R19,2*%
%TO.N,Net-(D4-K)*%
X135500000Y-31500000D03*
%TD*%
D20*
%TO.P,C6,1*%
%TO.N,+3.3V*%
X152362500Y-46000000D03*
%TO.P,C6,2*%
%TO.N,GND*%
X150637500Y-46000000D03*
%TD*%
D16*
%TO.P,R12,1*%
%TO.N,Net-(D7-A)*%
X97120000Y-63500000D03*
%TO.P,R12,2*%
%TO.N,Net-(U5-GPA7)*%
X98770000Y-63500000D03*
%TD*%
D11*
%TO.P,SW15,1,1*%
%TO.N,Net-(U5-GPB5)*%
X216540000Y-100420000D03*
%TO.P,SW15,2,2*%
%TO.N,GND*%
X210190000Y-102960000D03*
%TD*%
D20*
%TO.P,C12,1*%
%TO.N,+5V*%
X81362500Y-34000000D03*
%TO.P,C12,2*%
%TO.N,GND*%
X79637500Y-34000000D03*
%TD*%
D36*
%TO.P,U3,1,OUT*%
%TO.N,Net-(U6-VI)*%
X83667500Y-33757500D03*
%TO.P,U3,2,VPCC*%
%TO.N,+5V*%
X83667500Y-34257500D03*
%TO.P,U3,3,SEL*%
%TO.N,GND*%
X83667500Y-34757500D03*
%TO.P,U3,4,PROG2*%
%TO.N,Net-(U3-PROG2)*%
X83667500Y-35257500D03*
%TO.P,U3,5,THERM*%
%TO.N,Net-(U3-THERM)*%
X83667500Y-35757500D03*
D37*
%TO.P,U3,6,~{PG}*%
%TO.N,Net-(U3-~{PG})*%
X84605000Y-36695000D03*
%TO.P,U3,7,STAT2*%
%TO.N,Net-(U3-STAT2)*%
X85105000Y-36695000D03*
%TO.P,U3,8,STAT1/~{LBO}*%
%TO.N,Net-(U3-STAT1{slash}~{LBO})*%
X85605000Y-36695000D03*
%TO.P,U3,9,~{TE}*%
%TO.N,Net-(U3-CE)*%
X86105000Y-36695000D03*
%TO.P,U3,10,V_{SS}*%
%TO.N,GND*%
X86605000Y-36695000D03*
D36*
%TO.P,U3,11,V_{SS}*%
X87542500Y-35757500D03*
%TO.P,U3,12,PROG3*%
%TO.N,Net-(U3-PROG3)*%
X87542500Y-35257500D03*
%TO.P,U3,13,PROG1*%
%TO.N,Net-(U3-PROG1)*%
X87542500Y-34757500D03*
%TO.P,U3,14,V_{BAT}*%
%TO.N,Net-(SW18-A)*%
X87542500Y-34257500D03*
%TO.P,U3,15,V_{BAT}*%
X87542500Y-33757500D03*
D37*
%TO.P,U3,16,V_{BAT_SENSE}*%
X86605000Y-32820000D03*
%TO.P,U3,17,CE*%
%TO.N,Net-(U3-CE)*%
X86105000Y-32820000D03*
%TO.P,U3,18,IN*%
%TO.N,+5V*%
X85605000Y-32820000D03*
%TO.P,U3,19,IN*%
X85105000Y-32820000D03*
%TO.P,U3,20,OUT*%
%TO.N,Net-(U6-VI)*%
X84605000Y-32820000D03*
D38*
%TO.P,U3,21,V_{SS}*%
%TO.N,GND*%
X85605000Y-34757500D03*
%TD*%
D19*
%TO.P,C3,1*%
%TO.N,Net-(C3-Pad1)*%
X165000000Y-35637500D03*
%TO.P,C3,2*%
%TO.N,GND*%
X165000000Y-37362500D03*
%TD*%
D11*
%TO.P,SW16,1,1*%
%TO.N,Net-(U5-GPB4)*%
X229290000Y-120880000D03*
%TO.P,SW16,2,2*%
%TO.N,GND*%
X222940000Y-123420000D03*
%TD*%
D39*
%TO.P,U1,1,3V3*%
%TO.N,+3.3V*%
X70496320Y-76837280D03*
D40*
%TO.P,U1,2,3V3*%
X70496320Y-74297280D03*
%TO.P,U1,3,CHIP_PU*%
%TO.N,unconnected-(U1-CHIP_PU-Pad3)*%
X70496320Y-71757280D03*
%TO.P,U1,4,GPIO4/ADC1_CH3*%
%TO.N,Sustain*%
X70496320Y-69217280D03*
%TO.P,U1,5,GPIO5/ADC1_CH4*%
%TO.N,Release*%
X70496320Y-66677280D03*
%TO.P,U1,6,GPIO6/ADC1_CH5*%
%TO.N,Cutoff*%
X70496320Y-64137280D03*
%TO.P,U1,7,GPIO7/ADC1_CH6*%
%TO.N,Resonance*%
X70496320Y-61597280D03*
%TO.P,U1,8,GPIO15/ADC2_CH4/32K_P*%
%TO.N,MIDI IN*%
X70496320Y-59057280D03*
%TO.P,U1,9,GPIO16/ADC2_CH5/32K_N*%
%TO.N,Rotary A*%
X70496320Y-56517280D03*
%TO.P,U1,10,GPIO17/ADC2_CH6*%
%TO.N,STICKX*%
X70496320Y-53977280D03*
%TO.P,U1,11,GPIO18/ADC2_CH7*%
%TO.N,STICKY*%
X70496320Y-51437280D03*
%TO.P,U1,12,GPIO8/ADC1_CH7*%
%TO.N,Volume*%
X70496320Y-48897280D03*
%TO.P,U1,13,GPIO3/ADC1_CH2*%
%TO.N,unconnected-(U1-GPIO3{slash}ADC1_CH2-Pad13)*%
X70496320Y-46357280D03*
%TO.P,U1,14,GPIO46*%
%TO.N,unconnected-(U1-GPIO46-Pad14)*%
X70496320Y-43817280D03*
%TO.P,U1,15,GPIO9/ADC1_CH8*%
%TO.N,Shift Key*%
X70496320Y-41277280D03*
%TO.P,U1,16,GPIO10/ADC1_CH9*%
%TO.N,OCT +*%
X70496320Y-38737280D03*
%TO.P,U1,17,GPIO11/ADC2_CH0*%
%TO.N,OCT -*%
X70496320Y-36197280D03*
%TO.P,U1,18,GPIO12/ADC2_CH1*%
%TO.N,unconnected-(U1-GPIO12{slash}ADC2_CH1-Pad18)*%
X70496320Y-33657280D03*
%TO.P,U1,19,GPIO13/ADC2_CH2*%
%TO.N,unconnected-(U1-GPIO13{slash}ADC2_CH2-Pad19)*%
X70496320Y-31117280D03*
%TO.P,U1,20,GPIO14/ADC2_CH3*%
%TO.N,unconnected-(U1-GPIO14{slash}ADC2_CH3-Pad20)*%
X70500000Y-28580000D03*
%TO.P,U1,21,5V*%
%TO.N,+5V*%
X70500000Y-26040000D03*
%TO.P,U1,22,GND*%
%TO.N,GND*%
X70500000Y-23500000D03*
%TO.P,U1,23,GND*%
X45496320Y-23497280D03*
%TO.P,U1,24,GND*%
X45496320Y-26037280D03*
%TO.P,U1,25,GPIO19/USB_D-*%
%TO.N,unconnected-(U1-GPIO19{slash}USB_D--Pad25)*%
X45496320Y-28577280D03*
%TO.P,U1,26,GPIO20/USB_D+*%
%TO.N,unconnected-(U1-GPIO20{slash}USB_D+-Pad26)*%
X45496320Y-31117280D03*
%TO.P,U1,27,GPIO21*%
%TO.N,DIN*%
X45496320Y-33657280D03*
%TO.P,U1,28,GPIO47*%
%TO.N,CLK*%
X45496320Y-36197280D03*
%TO.P,U1,29,GPIO48*%
%TO.N,unconnected-(U1-GPIO48-Pad29)*%
X45496320Y-38737280D03*
%TO.P,U1,30,GPIO45*%
%TO.N,unconnected-(U1-GPIO45-Pad30)*%
X45496320Y-41277280D03*
%TO.P,U1,31,GPIO0*%
%TO.N,unconnected-(U1-GPIO0-Pad31)*%
X45496320Y-43817280D03*
%TO.P,U1,32,GPIO35*%
%TO.N,BCK*%
X45496320Y-46357280D03*
%TO.P,U1,33,GPIO36*%
%TO.N,LRCK*%
X45496320Y-48897280D03*
%TO.P,U1,34,GPIO37*%
%TO.N,CMD*%
X45496320Y-51437280D03*
%TO.P,U1,35,GPIO38*%
%TO.N,DAT0*%
X45496320Y-53977280D03*
%TO.P,U1,36,GPIO39/MTCK*%
%TO.N,I2C SCK*%
X45496320Y-56517280D03*
%TO.P,U1,37,GPIO40/MTDO*%
%TO.N,I2C SDA*%
X45496320Y-59057280D03*
%TO.P,U1,38,GPIO41/MTDI*%
%TO.N,Rotary B*%
X45496320Y-61597280D03*
%TO.P,U1,39,GPIO42/MTMS*%
%TO.N,Rotary SW*%
X45496320Y-64137280D03*
%TO.P,U1,40,GPIO2/ADC1_CH1*%
%TO.N,Decay*%
X45496320Y-66677280D03*
%TO.P,U1,41,GPIO1/ADC1_CH0*%
%TO.N,Attack*%
X45496320Y-69217280D03*
%TO.P,U1,42,GPIO44/U0RXD*%
%TO.N,unconnected-(U1-GPIO44{slash}U0RXD-Pad42)*%
X45496320Y-71757280D03*
%TO.P,U1,43,GPIO43/U0TXD*%
%TO.N,unconnected-(U1-GPIO43{slash}U0TXD-Pad43)*%
X45496320Y-74297280D03*
%TO.P,U1,44,GND*%
%TO.N,GND*%
X45496320Y-76837280D03*
%TD*%
D41*
%TO.P,TH1,1*%
%TO.N,Net-(U3-THERM)*%
X80912500Y-37000000D03*
%TO.P,TH1,2*%
%TO.N,GND*%
X79087500Y-37000000D03*
%TD*%
D10*
%TO.P,R30,1*%
%TO.N,+3.3V*%
X165325000Y-42500000D03*
%TO.P,R30,2*%
%TO.N,Net-(U2-XSMT)*%
X163675000Y-42500000D03*
%TD*%
D42*
%TO.P,U7,A*%
%TO.N,N/C*%
X48862500Y-118300000D03*
%TO.P,U7,B*%
X55362500Y-118300000D03*
%TO.P,U7,C*%
X48862500Y-122800000D03*
%TO.P,U7,D*%
X55362500Y-122800000D03*
D43*
%TO.P,U7,S1*%
X58437500Y-107550000D03*
%TO.P,U7,S2*%
X45787500Y-107550000D03*
%TO.P,U7,S3*%
X45787500Y-117550000D03*
%TO.P,U7,S4*%
X58437500Y-117550000D03*
D44*
%TO.P,U7,VR1_1*%
%TO.N,+3.3V*%
X60842500Y-115050000D03*
D45*
%TO.P,U7,VR1_2*%
%TO.N,STICKX*%
X60842500Y-112550000D03*
%TO.P,U7,VR1_3*%
%TO.N,GND*%
X60842500Y-110050000D03*
%TO.P,U7,VR2_1*%
%TO.N,+3.3V*%
X54612500Y-103820000D03*
%TO.P,U7,VR2_2*%
%TO.N,STICKY*%
X52112500Y-103820000D03*
%TO.P,U7,VR2_3*%
%TO.N,GND*%
X49612500Y-103820000D03*
%TD*%
D16*
%TO.P,R5,1*%
%TO.N,I2C SDA*%
X155880000Y-80635000D03*
%TO.P,R5,2*%
%TO.N,+3.3V*%
X157530000Y-80635000D03*
%TD*%
D13*
%TO.P,RV7,1,1*%
%TO.N,GND*%
X174225000Y-31975000D03*
D14*
%TO.P,RV7,2,2*%
%TO.N,Volume*%
X174225000Y-34475000D03*
%TO.P,RV7,3,3*%
%TO.N,+3.3V*%
X174225000Y-36975000D03*
D15*
%TO.P,RV7,MP*%
%TO.N,N/C*%
X181725000Y-28875000D03*
X181725000Y-40075000D03*
%TD*%
D29*
%TO.P,C15,1*%
%TO.N,+3.3V*%
X85275000Y-28775000D03*
%TO.P,C15,2*%
%TO.N,GND*%
X87000000Y-28775000D03*
%TD*%
D11*
%TO.P,SW8,1,1*%
%TO.N,Net-(U5-GPA4)*%
X126540000Y-100420000D03*
%TO.P,SW8,2,2*%
%TO.N,GND*%
X120190000Y-102960000D03*
%TD*%
D10*
%TO.P,R7,1*%
%TO.N,Net-(U2-OUTL)*%
X152325000Y-43000000D03*
%TO.P,R7,2*%
%TO.N,Net-(C4-Pad1)*%
X150675000Y-43000000D03*
%TD*%
D31*
%TO.P,SW18,*%
%TO.N,*%
X41800000Y-24280000D03*
X41800000Y-22070000D03*
X34500000Y-24280000D03*
X34500000Y-22070000D03*
D46*
%TO.P,SW18,1,A*%
%TO.N,Net-(SW18-A)*%
X40400000Y-24930000D03*
%TO.P,SW18,2,B*%
%TO.N,Net-(BT1-+)*%
X37400000Y-24930000D03*
%TO.P,SW18,3,C*%
%TO.N,unconnected-(SW18-C-Pad3)*%
X35900000Y-24930000D03*
%TD*%
D10*
%TO.P,R10,1*%
%TO.N,DIN*%
X165325000Y-45500000D03*
%TO.P,R10,2*%
%TO.N,Net-(U2-DIN)*%
X163675000Y-45500000D03*
%TD*%
D47*
%TO.P,U8,*%
%TO.N,*%
X195940000Y-24390000D03*
X195940000Y-46390000D03*
X217940000Y-24390000D03*
X217940000Y-46390000D03*
D48*
%TO.P,U8,1,GND*%
%TO.N,GND*%
X203110000Y-23890000D03*
%TO.P,U8,2,VCC*%
%TO.N,+3.3V*%
X205650000Y-23890000D03*
%TO.P,U8,3,SCL*%
%TO.N,I2C SCK*%
X208190000Y-23890000D03*
%TO.P,U8,4,SDA*%
%TO.N,I2C SDA*%
X210730000Y-23890000D03*
%TD*%
D29*
%TO.P,C7,1*%
%TO.N,Net-(U2-CAPP)*%
X150637500Y-40000000D03*
%TO.P,C7,2*%
%TO.N,Net-(U2-CAPM)*%
X152362500Y-40000000D03*
%TD*%
D12*
%TO.P,R24,1*%
%TO.N,+3.3V*%
X105645000Y-42825000D03*
%TO.P,R24,2*%
%TO.N,Net-(J3-DAT3{slash}CD)*%
X105645000Y-41175000D03*
%TD*%
D20*
%TO.P,C5,1*%
%TO.N,+3.3V*%
X152362500Y-47500000D03*
%TO.P,C5,2*%
%TO.N,GND*%
X150637500Y-47500000D03*
%TD*%
D10*
%TO.P,R4,1*%
%TO.N,Net-(U5-INTA)*%
X140030000Y-84135000D03*
%TO.P,R4,2*%
%TO.N,+3.3V*%
X138380000Y-84135000D03*
%TD*%
D16*
%TO.P,R22,1*%
%TO.N,+3.3V*%
X79675000Y-35500000D03*
%TO.P,R22,2*%
%TO.N,Net-(U3-PROG2)*%
X81325000Y-35500000D03*
%TD*%
%TO.P,R2,1*%
%TO.N,GND*%
X138380000Y-81135000D03*
%TO.P,R2,2*%
%TO.N,Net-(U5-A1)*%
X140030000Y-81135000D03*
%TD*%
D26*
%TO.P,R14,1*%
%TO.N,Net-(U3-STAT1{slash}~{LBO})*%
X86500000Y-39000000D03*
%TO.P,R14,2*%
%TO.N,Net-(D2-K)*%
X86500000Y-40650000D03*
%TD*%
D13*
%TO.P,SW1,A,A*%
%TO.N,Rotary A*%
X223750000Y-28500000D03*
D14*
%TO.P,SW1,B,B*%
%TO.N,Rotary B*%
X223750000Y-33500000D03*
%TO.P,SW1,C,C*%
%TO.N,GND*%
X223750000Y-31000000D03*
D15*
%TO.P,SW1,MP*%
%TO.N,N/C*%
X231250000Y-25400000D03*
X231250000Y-36600000D03*
D14*
%TO.P,SW1,S1,S1*%
%TO.N,Rotary SW*%
X238250000Y-33500000D03*
%TO.P,SW1,S2,S2*%
%TO.N,GND*%
X238250000Y-28500000D03*
%TD*%
D10*
%TO.P,R8,1*%
%TO.N,Net-(U2-OUTR)*%
X152325000Y-44500000D03*
%TO.P,R8,2*%
%TO.N,Net-(C3-Pad1)*%
X150675000Y-44500000D03*
%TD*%
D20*
%TO.P,C14,1*%
%TO.N,Net-(U6-VI)*%
X83500000Y-30775000D03*
%TO.P,C14,2*%
%TO.N,GND*%
X81775000Y-30775000D03*
%TD*%
D22*
%TO.P,D3,1,K*%
%TO.N,Net-(D3-K)*%
X85000000Y-42750000D03*
%TO.P,D3,2,A*%
%TO.N,+5V*%
X85000000Y-44500000D03*
%TD*%
D16*
%TO.P,R1,1*%
%TO.N,GND*%
X138380000Y-79635000D03*
%TO.P,R1,2*%
%TO.N,Net-(U5-A0)*%
X140030000Y-79635000D03*
%TD*%
D11*
%TO.P,SW6,1,1*%
%TO.N,Net-(U5-GPA5)*%
X104040000Y-100420000D03*
%TO.P,SW6,2,2*%
%TO.N,GND*%
X97690000Y-102960000D03*
%TD*%
D16*
%TO.P,R6,1*%
%TO.N,I2C SCK*%
X155880000Y-82635000D03*
%TO.P,R6,2*%
%TO.N,+3.3V*%
X157530000Y-82635000D03*
%TD*%
D25*
%TO.P,SW2,1,1*%
%TO.N,OCT +*%
X79450000Y-72200000D03*
X83550000Y-72200000D03*
%TO.P,SW2,2,2*%
%TO.N,GND*%
X79450000Y-73800000D03*
X83550000Y-73800000D03*
%TD*%
D29*
%TO.P,C18,1*%
%TO.N,Net-(U2-LDOO)*%
X163637500Y-41000000D03*
%TO.P,C18,2*%
%TO.N,GND*%
X165362500Y-41000000D03*
%TD*%
D11*
%TO.P,SW9,1,1*%
%TO.N,Net-(U5-GPA1)*%
X139290000Y-120880000D03*
%TO.P,SW9,2,2*%
%TO.N,GND*%
X132940000Y-123420000D03*
%TD*%
D29*
%TO.P,C11,1*%
%TO.N,Net-(BT1-+)*%
X89775000Y-33000000D03*
%TO.P,C11,2*%
%TO.N,GND*%
X91500000Y-33000000D03*
%TD*%
D13*
%TO.P,RV6,1,1*%
%TO.N,GND*%
X108225000Y-74525000D03*
D14*
%TO.P,RV6,2,2*%
%TO.N,Resonance*%
X108225000Y-77025000D03*
%TO.P,RV6,3,3*%
%TO.N,+3.3V*%
X108225000Y-79525000D03*
D15*
%TO.P,RV6,MP*%
%TO.N,N/C*%
X115725000Y-71425000D03*
X115725000Y-82625000D03*
%TD*%
D11*
%TO.P,SW7,1,1*%
%TO.N,Net-(U5-GPA2)*%
X116790000Y-120880000D03*
%TO.P,SW7,2,2*%
%TO.N,GND*%
X110440000Y-123420000D03*
%TD*%
D10*
%TO.P,R17,1*%
%TO.N,GND*%
X91500000Y-36000000D03*
%TO.P,R17,2*%
%TO.N,Net-(U3-PROG3)*%
X89850000Y-36000000D03*
%TD*%
D49*
%TO.P,J2,R*%
%TO.N,Net-(D4-A)*%
X148500000Y-30500000D03*
D50*
%TO.P,J2,S*%
%TO.N,unconnected-(J2-PadS)*%
X143500000Y-25500000D03*
D49*
%TO.P,J2,T*%
%TO.N,Net-(J2-PadT)*%
X138500000Y-30500000D03*
%TD*%
D10*
%TO.P,R11,1*%
%TO.N,BCK*%
X165325000Y-47000000D03*
%TO.P,R11,2*%
%TO.N,Net-(U2-BCK)*%
X163675000Y-47000000D03*
%TD*%
D16*
%TO.P,R29,1*%
%TO.N,Net-(D5-A)*%
X97120000Y-52500000D03*
%TO.P,R29,2*%
%TO.N,Net-(U5-GPB7)*%
X98770000Y-52500000D03*
%TD*%
D11*
%TO.P,SW10,1,1*%
%TO.N,Net-(U5-GPA0)*%
X161790000Y-120880000D03*
%TO.P,SW10,2,2*%
%TO.N,GND*%
X155440000Y-123420000D03*
%TD*%
D23*
%TO.P,D6,1,K*%
%TO.N,GND*%
X91230000Y-57970000D03*
D24*
%TO.P,D6,2,A*%
%TO.N,Net-(D6-A)*%
X93770000Y-57970000D03*
%TD*%
D51*
%TO.P,U4,1,NC*%
%TO.N,unconnected-(U4-NC-Pad1)*%
X131500000Y-32310000D03*
D52*
%TO.P,U4,2,C1*%
%TO.N,Net-(D4-K)*%
X131500000Y-29770000D03*
%TO.P,U4,3,C2*%
%TO.N,Net-(D4-A)*%
X131500000Y-27230000D03*
%TO.P,U4,4,NC*%
%TO.N,unconnected-(U4-NC-Pad4)*%
X131500000Y-24690000D03*
%TO.P,U4,5,GND*%
%TO.N,GND*%
X123880000Y-24690000D03*
%TO.P,U4,6,VO2*%
%TO.N,MIDI IN*%
X123880000Y-27230000D03*
%TO.P,U4,7,VO1*%
%TO.N,Net-(U4-VO1)*%
X123880000Y-29770000D03*
%TO.P,U4,8,VCC*%
%TO.N,+3.3V*%
X123880000Y-32310000D03*
%TD*%
D49*
%TO.P,J1,R*%
%TO.N,Net-(C3-Pad1)*%
X165230000Y-30500000D03*
D50*
%TO.P,J1,S*%
%TO.N,GND*%
X160230000Y-25500000D03*
D49*
%TO.P,J1,T*%
%TO.N,Net-(C4-Pad1)*%
X155230000Y-30500000D03*
%TD*%
D11*
%TO.P,SW13,1,1*%
%TO.N,Net-(U5-GPB3)*%
X194040000Y-100420000D03*
%TO.P,SW13,2,2*%
%TO.N,GND*%
X187690000Y-102960000D03*
%TD*%
D23*
%TO.P,D5,1,K*%
%TO.N,GND*%
X91230000Y-52500000D03*
D24*
%TO.P,D5,2,A*%
%TO.N,Net-(D5-A)*%
X93770000Y-52500000D03*
%TD*%
D13*
%TO.P,RV1,1,1*%
%TO.N,GND*%
X131225000Y-67080000D03*
D14*
%TO.P,RV1,2,2*%
%TO.N,Attack*%
X131225000Y-69580000D03*
%TO.P,RV1,3,3*%
%TO.N,+3.3V*%
X131225000Y-72080000D03*
D15*
%TO.P,RV1,MP*%
%TO.N,N/C*%
X138725000Y-63980000D03*
X138725000Y-75180000D03*
%TD*%
D53*
%TO.N,Net-(BT1-+)*%
X34500000Y-28500000D03*
%TO.N,+3.3V*%
X78500000Y-35500000D03*
X152500000Y-48500000D03*
X166500000Y-42500000D03*
X85275000Y-30000000D03*
X103175000Y-42825000D03*
X151137500Y-37862500D03*
X163637500Y-38000000D03*
X159230000Y-84920000D03*
X117500000Y-27500000D03*
X108000000Y-36500000D03*
X89150000Y-40650000D03*
X113825000Y-42825000D03*
X137230000Y-84135000D03*
%TO.N,LRCK*%
X89487851Y-47614579D03*
X85434313Y-47565687D03*
%TO.N,DIN*%
X81000000Y-46000000D03*
X79500000Y-44000000D03*
X86000000Y-47000000D03*
X90000000Y-47000000D03*
%TO.N,BCK*%
X86500000Y-46000000D03*
X91000000Y-46000000D03*
%TO.N,Net-(U3-CE)*%
X89000000Y-31500000D03*
X90500000Y-31500000D03*
%TO.N,Resonance*%
X78100000Y-62000000D03*
X76000000Y-62000000D03*
%TO.N,Sustain*%
X170225000Y-69580000D03*
X124000000Y-73500000D03*
%TO.N,Attack*%
X121500000Y-74700000D03*
%TO.N,Release*%
X79000000Y-66500000D03*
X189725000Y-69580000D03*
%TO.N,Decay*%
X128500000Y-74100000D03*
X125000000Y-74100000D03*
%TO.N,+5V*%
X86000000Y-31500000D03*
X85000000Y-31500000D03*
X81500000Y-44500000D03*
X81500000Y-32500000D03*
%TO.N,I2C SDA*%
X184500000Y-53100000D03*
X183810000Y-50810000D03*
%TO.N,Volume*%
X88500000Y-48500000D03*
X84500000Y-48500000D03*
%TO.N,I2C SCK*%
X181540000Y-50540000D03*
X182000000Y-53100000D03*
%TO.N,Cutoff*%
X81000000Y-64000000D03*
%TO.N,GND*%
X156500000Y-45000000D03*
X78500000Y-34000000D03*
X156500000Y-38000000D03*
X78000000Y-37000000D03*
X156500000Y-41000000D03*
X81500000Y-29775000D03*
X30000000Y-112500000D03*
X166500000Y-37500000D03*
X86500000Y-34000000D03*
X93000000Y-36000000D03*
X137230000Y-81135000D03*
X117500000Y-29500000D03*
X93000000Y-33000000D03*
X159500000Y-45000000D03*
X93000000Y-34500000D03*
X150500000Y-48500000D03*
X149500000Y-41500000D03*
X151137500Y-36137500D03*
X80000000Y-26775000D03*
X88500000Y-28775000D03*
X78200000Y-58800000D03*
X78200000Y-73800000D03*
X159000000Y-42000000D03*
X159500000Y-40500000D03*
X85000000Y-35500000D03*
X112500000Y-36000000D03*
X32000000Y-112500000D03*
X166500000Y-41000000D03*
X231750000Y-43500000D03*
X85000000Y-34000000D03*
X34000000Y-112500000D03*
X86500000Y-35500000D03*
X137230000Y-85635000D03*
X85605000Y-34757500D03*
X154230000Y-84960000D03*
X78100000Y-83100000D03*
%TO.N,Net-(U5-GPB7)*%
X100000000Y-52500000D03*
X101500000Y-53500000D03*
%TO.N,Net-(U5-GPB6)*%
X97500000Y-54900000D03*
X99500000Y-55500000D03*
%TO.N,Shift Key*%
X78000000Y-42500000D03*
X173074265Y-55274265D03*
X170434313Y-55065687D03*
X109000000Y-49600000D03*
%TO.N,Rotary A*%
X81500000Y-53400000D03*
X85500000Y-53500000D03*
%TO.N,OCT +*%
X78300000Y-72200000D03*
%TO.N,OCT -*%
X78500000Y-81500000D03*
%TO.N,Rotary SW*%
X174000000Y-54600000D03*
X171000000Y-54500000D03*
%TD*%
D54*
%TO.N,Net-(BT1-+)*%
X36000000Y-28500000D02*
X37400000Y-27100000D01*
X37400000Y-27100000D02*
X37400000Y-25600000D01*
X37400000Y-25600000D02*
X37400000Y-24930000D01*
X34500000Y-28500000D02*
X36000000Y-28500000D01*
D55*
%TO.N,STICKY*%
X52112500Y-103820000D02*
X52112500Y-99179600D01*
X43333900Y-90401000D02*
X43099000Y-90166100D01*
X43000000Y-54500000D02*
X45000000Y-52500000D01*
X43099000Y-90099000D02*
X43000000Y-90000000D01*
X52112500Y-99179600D02*
X43333900Y-90401000D01*
X45000000Y-52500000D02*
X46406500Y-52500000D01*
X47469220Y-51437280D02*
X70496320Y-51437280D01*
X43000000Y-90000000D02*
X43000000Y-54500000D01*
X46406500Y-52500000D02*
X47469220Y-51437280D01*
X43099000Y-90166100D02*
X43099000Y-90099000D01*
%TO.N,Net-(J3-DAT3{slash}CD)*%
X106000000Y-39500000D02*
X106000000Y-37690000D01*
X105645000Y-41175000D02*
X105645000Y-39855000D01*
X105645000Y-39855000D02*
X106000000Y-39500000D01*
%TO.N,CLK*%
X43500000Y-34200960D02*
X45496320Y-36197280D01*
X108248943Y-35899000D02*
X95101000Y-35899000D01*
X72500000Y-30500000D02*
X72000000Y-30000000D01*
X79449000Y-39949000D02*
X72500000Y-33000000D01*
X95101000Y-35899000D02*
X91051000Y-39949000D01*
X109300000Y-37690000D02*
X109300000Y-36950057D01*
X43500000Y-31000000D02*
X43500000Y-34200960D01*
X91051000Y-39949000D02*
X79449000Y-39949000D01*
X44500000Y-30000000D02*
X43500000Y-31000000D01*
X72000000Y-30000000D02*
X44500000Y-30000000D01*
X109300000Y-36950057D02*
X108248943Y-35899000D01*
X72500000Y-33000000D02*
X72500000Y-30500000D01*
%TO.N,+3.3V*%
X152362500Y-47500000D02*
X152362500Y-46000000D01*
X152362500Y-46000000D02*
X154237500Y-44125000D01*
X107145000Y-42825000D02*
X105645000Y-42825000D01*
X153425000Y-37862500D02*
X155137500Y-39575000D01*
X151137500Y-37862500D02*
X152500000Y-37862500D01*
X79675000Y-35500000D02*
X78500000Y-35500000D01*
X152530000Y-86230000D02*
X156510000Y-86230000D01*
D54*
X85000000Y-26725000D02*
X85000000Y-28500000D01*
D55*
X113825000Y-42825000D02*
X111145000Y-42825000D01*
X157530000Y-80635000D02*
X157530000Y-82635000D01*
X137230000Y-84135000D02*
X138380000Y-84135000D01*
X163637500Y-38000000D02*
X163637500Y-39000000D01*
X103175000Y-42825000D02*
X104145000Y-42825000D01*
X165325000Y-42500000D02*
X166500000Y-42500000D01*
X160862500Y-39575000D02*
X163062500Y-39575000D01*
X105645000Y-42825000D02*
X104145000Y-42825000D01*
X117500000Y-27500000D02*
X119350000Y-27500000D01*
X158890000Y-85260000D02*
X157730000Y-85260000D01*
X163062500Y-39575000D02*
X163637500Y-39000000D01*
X152500000Y-48500000D02*
X152500000Y-47637500D01*
X152500000Y-47637500D02*
X152362500Y-47500000D01*
X157605000Y-82710000D02*
X157530000Y-82635000D01*
D54*
X85275000Y-30000000D02*
X85275000Y-28775000D01*
D55*
X156510000Y-86230000D02*
X157605000Y-85135000D01*
X152500000Y-37862500D02*
X153425000Y-37862500D01*
X108000000Y-37490000D02*
X108200000Y-37690000D01*
X157730000Y-85260000D02*
X157605000Y-85135000D01*
X157605000Y-85135000D02*
X157605000Y-82710000D01*
X89150000Y-40650000D02*
X88000000Y-40650000D01*
X159230000Y-84920000D02*
X158890000Y-85260000D01*
X154237500Y-44125000D02*
X155137500Y-44125000D01*
X108000000Y-36500000D02*
X108000000Y-37490000D01*
D54*
X85000000Y-28500000D02*
X85275000Y-28775000D01*
D55*
%TO.N,Net-(J3-DAT2)*%
X104500000Y-39500000D02*
X104900000Y-39100000D01*
X104500000Y-40820000D02*
X104500000Y-39500000D01*
X104145000Y-41175000D02*
X104500000Y-40820000D01*
X104900000Y-39100000D02*
X104900000Y-37690000D01*
%TO.N,Net-(J3-DAT1)*%
X112600000Y-37690000D02*
X112600000Y-38600000D01*
X112645000Y-38645000D02*
X112645000Y-41175000D01*
X112600000Y-38600000D02*
X112645000Y-38645000D01*
%TO.N,CMD*%
X107100000Y-41130000D02*
X107145000Y-41175000D01*
X84000000Y-50000000D02*
X46933600Y-50000000D01*
X106444000Y-41876000D02*
X92124000Y-41876000D01*
X107145000Y-41175000D02*
X106444000Y-41876000D01*
X46933600Y-50000000D02*
X45496320Y-51437280D01*
X107100000Y-37690000D02*
X107100000Y-41130000D01*
X92124000Y-41876000D02*
X84000000Y-50000000D01*
%TO.N,STICKX*%
X62500000Y-110892500D02*
X62500000Y-109000000D01*
X43500000Y-56000000D02*
X44500000Y-55000000D01*
X43500000Y-90000000D02*
X43500000Y-56000000D01*
X60842500Y-112550000D02*
X62500000Y-110892500D01*
X44500000Y-55000000D02*
X69473600Y-55000000D01*
X62500000Y-109000000D02*
X43500000Y-90000000D01*
X69473600Y-55000000D02*
X70496320Y-53977280D01*
%TO.N,DAT0*%
X108320000Y-44000000D02*
X91000000Y-44000000D01*
X111500000Y-39500000D02*
X111145000Y-39855000D01*
X111145000Y-41175000D02*
X108320000Y-44000000D01*
X82500000Y-52500000D02*
X46973600Y-52500000D01*
X111145000Y-39855000D02*
X111145000Y-41175000D01*
X111500000Y-37690000D02*
X111500000Y-39500000D01*
X46973600Y-52500000D02*
X45496320Y-53977280D01*
X91000000Y-44000000D02*
X82500000Y-52500000D01*
%TO.N,Net-(C4-Pad1)*%
X150675000Y-43000000D02*
X149500000Y-43000000D01*
X151174057Y-36976000D02*
X154161500Y-36976000D01*
X155230000Y-35907500D02*
X155000000Y-36137500D01*
X149500000Y-43000000D02*
X148500000Y-42000000D01*
X154161500Y-36976000D02*
X155000000Y-36137500D01*
X148500000Y-39650057D02*
X151174057Y-36976000D01*
X155230000Y-30500000D02*
X155230000Y-35907500D01*
X148500000Y-42000000D02*
X148500000Y-39650057D01*
%TO.N,Net-(U2-OUTL)*%
X152325000Y-43000000D02*
X152500000Y-42825000D01*
X152500000Y-42825000D02*
X155137500Y-42825000D01*
%TO.N,Net-(C3-Pad1)*%
X154856794Y-29099000D02*
X150500000Y-33455794D01*
X148099000Y-39483957D02*
X148099000Y-42166100D01*
X148099000Y-42166100D02*
X150432900Y-44500000D01*
X164022583Y-35637500D02*
X157484083Y-29099000D01*
X165000000Y-35637500D02*
X164022583Y-35637500D01*
X150432900Y-44500000D02*
X150675000Y-44500000D01*
X150500000Y-37082957D02*
X148099000Y-39483957D01*
X165000000Y-30730000D02*
X165230000Y-30500000D01*
X150500000Y-33455794D02*
X150500000Y-37082957D01*
X157484083Y-29099000D02*
X154856794Y-29099000D01*
X165000000Y-35637500D02*
X165000000Y-30730000D01*
%TO.N,Net-(U2-OUTR)*%
X153350000Y-43475000D02*
X155137500Y-43475000D01*
X152325000Y-44500000D02*
X153350000Y-43475000D01*
%TO.N,LRCK*%
X117302000Y-50302000D02*
X117167800Y-50302000D01*
X93000000Y-46000000D02*
X91385421Y-47614579D01*
X118067100Y-50302000D02*
X117832200Y-50302000D01*
X116932900Y-50067100D02*
X116698000Y-49832200D01*
X166192100Y-47889064D02*
X166139064Y-47942100D01*
X165325000Y-44000000D02*
X166427000Y-45102000D01*
X163446964Y-50302000D02*
X163114764Y-50302000D01*
X166427000Y-46345836D02*
X166427000Y-46367100D01*
X91385421Y-47614579D02*
X89487851Y-47614579D01*
X165657200Y-48423964D02*
X164248964Y-49832200D01*
X117832200Y-50302000D02*
X117734900Y-50302000D01*
X164014064Y-50067100D02*
X163779164Y-50302000D01*
X165904164Y-48177000D02*
X165892100Y-48189064D01*
X166427000Y-46367100D02*
X166427000Y-46678036D01*
X163779164Y-50302000D02*
X163446964Y-50302000D01*
X163114764Y-50302000D02*
X118067100Y-50302000D01*
X166427000Y-46034900D02*
X166427000Y-46345836D01*
X117500000Y-50302000D02*
X117302000Y-50302000D01*
X46827913Y-47565687D02*
X45496320Y-48897280D01*
X166427000Y-45102000D02*
X166427000Y-46034900D01*
X166427000Y-47321964D02*
X166427000Y-47654164D01*
X165892100Y-48189064D02*
X165657200Y-48423964D01*
X166427000Y-47654164D02*
X166192100Y-47889064D01*
X117167800Y-50302000D02*
X116932900Y-50067100D01*
X166427000Y-46678036D02*
X166427000Y-47321964D01*
X85434313Y-47565687D02*
X46827913Y-47565687D01*
X164248964Y-49832200D02*
X164014064Y-50067100D01*
X112865800Y-46000000D02*
X93000000Y-46000000D01*
X166139064Y-47942100D02*
X166127000Y-47954164D01*
X166127000Y-47954164D02*
X165904164Y-48177000D01*
X116698000Y-49832200D02*
X112865800Y-46000000D01*
X117734900Y-50302000D02*
X117500000Y-50302000D01*
%TO.N,Net-(U2-LRCK)*%
X163675000Y-44000000D02*
X163000000Y-44000000D01*
X161825000Y-42825000D02*
X160862500Y-42825000D01*
X163000000Y-44000000D02*
X161825000Y-42825000D01*
%TO.N,Net-(U2-DIN)*%
X161650000Y-43475000D02*
X160862500Y-43475000D01*
X163675000Y-45500000D02*
X161650000Y-43475000D01*
%TO.N,DIN*%
X117666100Y-49901000D02*
X117333900Y-49901000D01*
X46839040Y-35000000D02*
X45496320Y-33657280D01*
X79500000Y-44000000D02*
X79500000Y-43000000D01*
X165491100Y-48022964D02*
X163847964Y-49666100D01*
X79500000Y-43000000D02*
X71500000Y-35000000D01*
X112932900Y-45500000D02*
X92500000Y-45500000D01*
X165738064Y-47776000D02*
X165726000Y-47788064D01*
X166026000Y-46511936D02*
X166026000Y-47488064D01*
X117333900Y-49901000D02*
X117099000Y-49666100D01*
X117901000Y-49901000D02*
X117666100Y-49901000D01*
X166026000Y-46201000D02*
X166026000Y-46511936D01*
X165325000Y-45500000D02*
X166026000Y-46201000D01*
X163280864Y-49901000D02*
X117901000Y-49901000D01*
X163613064Y-49901000D02*
X163280864Y-49901000D01*
X85500000Y-46500000D02*
X86000000Y-47000000D01*
X166026000Y-47488064D02*
X165738064Y-47776000D01*
X165726000Y-47788064D02*
X165491100Y-48022964D01*
X91000000Y-47000000D02*
X90000000Y-47000000D01*
X117099000Y-49666100D02*
X112932900Y-45500000D01*
X81500000Y-46500000D02*
X85500000Y-46500000D01*
X81000000Y-46000000D02*
X81500000Y-46500000D01*
X71500000Y-35000000D02*
X46839040Y-35000000D01*
X92500000Y-45500000D02*
X91000000Y-47000000D01*
X163847964Y-49666100D02*
X163613064Y-49901000D01*
%TO.N,Net-(U2-BCK)*%
X161599999Y-44125000D02*
X160862500Y-44125000D01*
X161901000Y-45226000D02*
X161901000Y-44426001D01*
X161901000Y-44426001D02*
X161599999Y-44125000D01*
X163675000Y-47000000D02*
X161901000Y-45226000D01*
%TO.N,BCK*%
X46853600Y-45000000D02*
X45496320Y-46357280D01*
X92000000Y-45000000D02*
X113000000Y-45000000D01*
X86500000Y-46000000D02*
X82043720Y-46000000D01*
X91000000Y-46000000D02*
X92000000Y-45000000D01*
X165325000Y-47621964D02*
X165325000Y-47000000D01*
X113000000Y-45000000D02*
X117500000Y-49500000D01*
X163446964Y-49500000D02*
X165325000Y-47621964D01*
X117500000Y-49500000D02*
X163446964Y-49500000D01*
X81043720Y-45000000D02*
X46853600Y-45000000D01*
X82043720Y-46000000D02*
X81043720Y-45000000D01*
%TO.N,Net-(D3-K)*%
X85000000Y-40650000D02*
X85000000Y-42750000D01*
%TO.N,Net-(U3-STAT2)*%
X85105000Y-38895000D02*
X85000000Y-39000000D01*
X85105000Y-36695000D02*
X85105000Y-38895000D01*
%TO.N,Net-(U3-STAT1{slash}~{LBO})*%
X86500000Y-38085398D02*
X86500000Y-39000000D01*
X85605000Y-37190398D02*
X86500000Y-38085398D01*
X85605000Y-36695000D02*
X85605000Y-37190398D01*
%TO.N,Net-(D2-K)*%
X86500000Y-41500000D02*
X86500000Y-40650000D01*
X87000000Y-42000000D02*
X86500000Y-41500000D01*
X87000000Y-42750000D02*
X87000000Y-42000000D01*
%TO.N,Net-(D1-K)*%
X83500000Y-41500000D02*
X83000000Y-42000000D01*
X83000000Y-42000000D02*
X83000000Y-42750000D01*
X83500000Y-40650000D02*
X83500000Y-41500000D01*
%TO.N,Net-(U3-~{PG})*%
X84605000Y-36695000D02*
X84605000Y-37395000D01*
X83500000Y-38500000D02*
X83500000Y-39000000D01*
X84605000Y-37395000D02*
X83500000Y-38500000D01*
%TO.N,Net-(U3-PROG1)*%
X88742500Y-34757500D02*
X89000000Y-34500000D01*
X89000000Y-34500000D02*
X89850000Y-34500000D01*
X87542500Y-34757500D02*
X88742500Y-34757500D01*
%TO.N,Net-(U3-PROG3)*%
X88757500Y-35257500D02*
X89500000Y-36000000D01*
X89500000Y-36000000D02*
X89850000Y-36000000D01*
X87542500Y-35257500D02*
X88757500Y-35257500D01*
%TO.N,Net-(U3-CE)*%
X86105000Y-36695000D02*
X86105000Y-37123298D01*
X93000000Y-31500000D02*
X90500000Y-31500000D01*
X88000000Y-39000000D02*
X90849943Y-39000000D01*
X90849943Y-39000000D02*
X93601000Y-36248943D01*
X87981702Y-39000000D02*
X88000000Y-39000000D01*
X86105000Y-32391702D02*
X86105000Y-32820000D01*
X93601000Y-36248943D02*
X93601000Y-32101000D01*
X86105000Y-37123298D02*
X87981702Y-39000000D01*
X93500000Y-32000000D02*
X93000000Y-31500000D01*
X93601000Y-32101000D02*
X93500000Y-32000000D01*
X86996702Y-31500000D02*
X86105000Y-32391702D01*
X89000000Y-31500000D02*
X86996702Y-31500000D01*
%TO.N,Net-(J2-PadT)*%
X135850000Y-33150000D02*
X135500000Y-33150000D01*
X138500000Y-30500000D02*
X135850000Y-33150000D01*
%TO.N,Net-(D4-K)*%
X135500000Y-31500000D02*
X135500000Y-29000000D01*
X133230000Y-29770000D02*
X134000000Y-29000000D01*
X131500000Y-29770000D02*
X133230000Y-29770000D01*
X134000000Y-29000000D02*
X135500000Y-29000000D01*
%TO.N,Net-(U4-VO1)*%
X121270000Y-29770000D02*
X121000000Y-29500000D01*
X123880000Y-29770000D02*
X121270000Y-29770000D01*
%TO.N,Net-(U3-PROG2)*%
X82742500Y-35257500D02*
X82500000Y-35500000D01*
X83667500Y-35257500D02*
X82742500Y-35257500D01*
X82500000Y-35500000D02*
X81325000Y-35500000D01*
%TO.N,Resonance*%
X76000000Y-62000000D02*
X78100000Y-62000000D01*
%TO.N,Sustain*%
X70496320Y-69217280D02*
X72858640Y-69217280D01*
X72858640Y-69217280D02*
X73740360Y-70099000D01*
X73740360Y-70099000D02*
X109666100Y-70099000D01*
X113067100Y-73500000D02*
X124000000Y-73500000D01*
X109666100Y-70099000D02*
X113067100Y-73500000D01*
%TO.N,Attack*%
X71500000Y-73000000D02*
X73599000Y-70901000D01*
X49279040Y-73000000D02*
X71500000Y-73000000D01*
X109333900Y-70901000D02*
X113132900Y-74700000D01*
X73599000Y-70901000D02*
X109333900Y-70901000D01*
X113132900Y-74700000D02*
X121500000Y-74700000D01*
X45496320Y-69217280D02*
X49279040Y-73000000D01*
%TO.N,Release*%
X78822720Y-66677280D02*
X79000000Y-66500000D01*
X70496320Y-66677280D02*
X78822720Y-66677280D01*
%TO.N,Decay*%
X139000000Y-69500000D02*
X150645000Y-69500000D01*
X134400000Y-74100000D02*
X139000000Y-69500000D01*
X49319040Y-70500000D02*
X109500000Y-70500000D01*
X113100000Y-74100000D02*
X125000000Y-74100000D01*
X45496320Y-66677280D02*
X49319040Y-70500000D01*
X150645000Y-69500000D02*
X150725000Y-69580000D01*
X128500000Y-74100000D02*
X134400000Y-74100000D01*
X109500000Y-70500000D02*
X113100000Y-74100000D01*
D54*
%TO.N,+5V*%
X83667500Y-34257500D02*
X82757500Y-34257500D01*
D55*
X81500000Y-44500000D02*
X83000000Y-44500000D01*
D54*
X85105000Y-32820000D02*
X85105000Y-31605000D01*
D55*
X85105000Y-31605000D02*
X85000000Y-31500000D01*
D54*
X85605000Y-31895000D02*
X86000000Y-31500000D01*
X82757500Y-34257500D02*
X82500000Y-34000000D01*
D55*
X85000000Y-44500000D02*
X87000000Y-44500000D01*
X81500000Y-33862500D02*
X81362500Y-34000000D01*
D54*
X82500000Y-34000000D02*
X81362500Y-34000000D01*
X85605000Y-32820000D02*
X85605000Y-31895000D01*
D55*
X83000000Y-44500000D02*
X85000000Y-44500000D01*
D54*
X81500000Y-32500000D02*
X81500000Y-33862500D01*
D55*
%TO.N,I2C SDA*%
X71361341Y-63000000D02*
X49439040Y-63000000D01*
X94500000Y-47500000D02*
X92000000Y-50000000D01*
X152530000Y-81150000D02*
X154500000Y-81150000D01*
X112664500Y-47500000D02*
X94500000Y-47500000D01*
X116669500Y-51505000D02*
X112664500Y-47500000D01*
X49439040Y-63000000D02*
X45496320Y-59057280D01*
X155500000Y-78829000D02*
X155880000Y-79209000D01*
X79361341Y-55000000D02*
X71361341Y-63000000D01*
X155595000Y-80920000D02*
X155880000Y-80635000D01*
X154500000Y-81150000D02*
X154730000Y-80920000D01*
X155880000Y-79209000D02*
X155880000Y-80635000D01*
X183810000Y-50810000D02*
X183115000Y-51505000D01*
X154730000Y-80920000D02*
X155595000Y-80920000D01*
X183600000Y-54000000D02*
X173067100Y-54000000D01*
X92000000Y-50000000D02*
X88000000Y-50000000D01*
X183115000Y-51505000D02*
X116669500Y-51505000D01*
X88000000Y-50000000D02*
X83000000Y-55000000D01*
X184500000Y-53100000D02*
X183600000Y-54000000D01*
X173067100Y-54000000D02*
X155500000Y-71567100D01*
X155500000Y-71567100D02*
X155500000Y-78829000D01*
X83000000Y-55000000D02*
X79361341Y-55000000D01*
X210730000Y-23890000D02*
X183810000Y-50810000D01*
%TO.N,Volume*%
X167500000Y-47148264D02*
X166828000Y-47820264D01*
X166358200Y-48290064D02*
X166305164Y-48343100D01*
X163613064Y-50703000D02*
X163280864Y-50703000D01*
X165823300Y-48824964D02*
X164649964Y-49998300D01*
X166070264Y-48578000D02*
X166058200Y-48590064D01*
X117666100Y-50703000D02*
X117568800Y-50703000D01*
X166528000Y-48120264D02*
X166358200Y-48290064D01*
X166305164Y-48343100D02*
X166293100Y-48355164D01*
X166593100Y-48055164D02*
X166540064Y-48108200D01*
X84102720Y-48897280D02*
X70496320Y-48897280D01*
X163280864Y-50703000D02*
X162948664Y-50703000D01*
X174225000Y-34475000D02*
X167500000Y-41200000D01*
X164180164Y-50468100D02*
X163945264Y-50703000D01*
X117135900Y-50703000D02*
X117001700Y-50703000D01*
X117333900Y-50703000D02*
X117135900Y-50703000D01*
X116766800Y-50468100D02*
X116531900Y-50233200D01*
X93533550Y-46500000D02*
X91533550Y-48500000D01*
X118233200Y-50703000D02*
X117998300Y-50703000D01*
X164649964Y-49998300D02*
X164415064Y-50233200D01*
X117001700Y-50703000D02*
X116766800Y-50468100D01*
X166058200Y-48590064D02*
X165823300Y-48824964D01*
X84500000Y-48500000D02*
X84102720Y-48897280D01*
X117568800Y-50703000D02*
X117468100Y-50703000D01*
X117468100Y-50703000D02*
X117333900Y-50703000D01*
X167500000Y-41200000D02*
X167500000Y-47148264D01*
X166293100Y-48355164D02*
X166070264Y-48578000D01*
X112798700Y-46500000D02*
X93533550Y-46500000D01*
X117703000Y-50703000D02*
X117666100Y-50703000D01*
X117901000Y-50703000D02*
X117703000Y-50703000D01*
X163945264Y-50703000D02*
X163613064Y-50703000D01*
X164415064Y-50233200D02*
X164180164Y-50468100D01*
X166540064Y-48108200D02*
X166528000Y-48120264D01*
X91533550Y-48500000D02*
X88500000Y-48500000D01*
X117998300Y-50703000D02*
X117901000Y-50703000D01*
X116531900Y-50233200D02*
X116297000Y-49998300D01*
X116297000Y-49998300D02*
X112798700Y-46500000D01*
X166828000Y-47820264D02*
X166593100Y-48055164D01*
X162948664Y-50703000D02*
X118233200Y-50703000D01*
%TO.N,I2C SCK*%
X77574315Y-54500000D02*
X71574315Y-60500000D01*
X208190000Y-23890000D02*
X181540000Y-50540000D01*
X71574315Y-60500000D02*
X49479040Y-60500000D01*
X180976000Y-51104000D02*
X116835600Y-51104000D01*
X87500000Y-49500000D02*
X82500000Y-54500000D01*
X49479040Y-60500000D02*
X45496320Y-56517280D01*
X150500000Y-76000000D02*
X150500000Y-82000000D01*
X112731600Y-47000000D02*
X94000000Y-47000000D01*
X116835600Y-51104000D02*
X112731600Y-47000000D01*
X91500000Y-49500000D02*
X87500000Y-49500000D01*
X150920000Y-82420000D02*
X152530000Y-82420000D01*
X181540000Y-50540000D02*
X180976000Y-51104000D01*
X150500000Y-82000000D02*
X150920000Y-82420000D01*
X155665000Y-82420000D02*
X155880000Y-82635000D01*
X82500000Y-54500000D02*
X77574315Y-54500000D01*
X152530000Y-82420000D02*
X155665000Y-82420000D01*
X173000000Y-53500000D02*
X150500000Y-76000000D01*
X181600000Y-53500000D02*
X173000000Y-53500000D01*
X182000000Y-53100000D02*
X181600000Y-53500000D01*
X94000000Y-47000000D02*
X91500000Y-49500000D01*
%TO.N,Cutoff*%
X70496320Y-64137280D02*
X80862720Y-64137280D01*
X80862720Y-64137280D02*
X81000000Y-64000000D01*
%TO.N,GND*%
X91500000Y-34500000D02*
X93000000Y-34500000D01*
X150500000Y-47637500D02*
X150637500Y-47500000D01*
D54*
X78500000Y-34000000D02*
X79637500Y-34000000D01*
D55*
X165362500Y-41000000D02*
X166500000Y-41000000D01*
X81500000Y-29775000D02*
X81500000Y-29050000D01*
X166362500Y-37362500D02*
X166500000Y-37500000D01*
X83550000Y-58800000D02*
X79450000Y-58800000D01*
X81500000Y-30500000D02*
X81775000Y-30775000D01*
X91500000Y-33000000D02*
X93000000Y-33000000D01*
X155137500Y-45425000D02*
X156075000Y-45425000D01*
X155000000Y-37862500D02*
X156362500Y-37862500D01*
X81500000Y-29050000D02*
X81775000Y-28775000D01*
X112500000Y-36000000D02*
X113000000Y-36000000D01*
X155137500Y-44775000D02*
X156275000Y-44775000D01*
X159775000Y-40225000D02*
X159500000Y-40500000D01*
X111500000Y-36000000D02*
X110400000Y-37100000D01*
X78100000Y-83100000D02*
X79450000Y-83100000D01*
X160862500Y-45425000D02*
X159925000Y-45425000D01*
X83667500Y-34757500D02*
X85605000Y-34757500D01*
X81500000Y-29775000D02*
X81500000Y-30500000D01*
X117500000Y-29500000D02*
X119350000Y-29500000D01*
X154230000Y-84960000D02*
X155705000Y-84960000D01*
X91500000Y-36000000D02*
X93000000Y-36000000D01*
X150637500Y-41500000D02*
X149500000Y-41500000D01*
X150500000Y-48500000D02*
X150500000Y-47637500D01*
X156075000Y-45425000D02*
X156500000Y-45000000D01*
X150637500Y-46000000D02*
X150637500Y-47500000D01*
X80050000Y-26725000D02*
X80000000Y-26775000D01*
X83550000Y-73800000D02*
X79450000Y-73800000D01*
X82000000Y-26725000D02*
X80050000Y-26725000D01*
X113550000Y-36550000D02*
X113550000Y-37690000D01*
X137230000Y-81135000D02*
X138380000Y-81135000D01*
X155137500Y-40875000D02*
X156375000Y-40875000D01*
X159175000Y-42175000D02*
X159000000Y-42000000D01*
X137230000Y-85635000D02*
X138380000Y-85635000D01*
X79087500Y-37000000D02*
X78000000Y-37000000D01*
X78200000Y-73800000D02*
X79450000Y-73800000D01*
X78200000Y-58800000D02*
X79450000Y-58800000D01*
X87542500Y-35757500D02*
X86605000Y-35757500D01*
X231750000Y-43500000D02*
X231750000Y-44750000D01*
X152530000Y-84960000D02*
X154230000Y-84960000D01*
X86605000Y-36695000D02*
X86605000Y-35757500D01*
X165362500Y-39000000D02*
X165362500Y-38637500D01*
X113000000Y-36000000D02*
X113550000Y-36550000D01*
X155705000Y-84960000D02*
X155880000Y-85135000D01*
X231750000Y-44750000D02*
X231750000Y-48850000D01*
X156362500Y-37862500D02*
X156500000Y-38000000D01*
X160862500Y-44775000D02*
X159725000Y-44775000D01*
X159925000Y-45425000D02*
X159500000Y-45000000D01*
X87000000Y-28775000D02*
X88500000Y-28775000D01*
X165000000Y-37362500D02*
X166362500Y-37362500D01*
X156275000Y-44775000D02*
X156500000Y-45000000D01*
X110400000Y-37100000D02*
X110400000Y-37690000D01*
X138380000Y-79635000D02*
X138380000Y-82635000D01*
X160862500Y-40225000D02*
X159775000Y-40225000D01*
X112500000Y-36000000D02*
X111500000Y-36000000D01*
X151137500Y-36137500D02*
X152500000Y-36137500D01*
X160862500Y-42175000D02*
X159175000Y-42175000D01*
X156375000Y-40875000D02*
X156500000Y-41000000D01*
X159725000Y-44775000D02*
X159500000Y-45000000D01*
X79450000Y-83100000D02*
X83550000Y-83100000D01*
X165362500Y-38637500D02*
X166500000Y-37500000D01*
%TO.N,Net-(U5-GPB0)*%
X152530000Y-96390000D02*
X153890000Y-96390000D01*
X161500000Y-106500000D02*
X175880000Y-120880000D01*
X161500000Y-104000000D02*
X161500000Y-106500000D01*
X153890000Y-96390000D02*
X161500000Y-104000000D01*
X175880000Y-120880000D02*
X184290000Y-120880000D01*
%TO.N,Net-(U5-GPB1)*%
X152530000Y-95120000D02*
X166240000Y-95120000D01*
X166240000Y-95120000D02*
X171540000Y-100420000D01*
%TO.N,Net-(U5-GPB2)*%
X198380000Y-120880000D02*
X206790000Y-120880000D01*
X171350000Y-93850000D02*
X198380000Y-120880000D01*
X152530000Y-93850000D02*
X171350000Y-93850000D01*
%TO.N,Net-(U5-GPB3)*%
X152530000Y-92580000D02*
X186200000Y-92580000D01*
X186200000Y-92580000D02*
X194040000Y-100420000D01*
%TO.N,Net-(U5-GPB4)*%
X191310000Y-91310000D02*
X220880000Y-120880000D01*
X152530000Y-91310000D02*
X191310000Y-91310000D01*
X220880000Y-120880000D02*
X229290000Y-120880000D01*
%TO.N,Net-(U5-GPB5)*%
X152530000Y-90040000D02*
X206160000Y-90040000D01*
X206160000Y-90040000D02*
X216540000Y-100420000D01*
%TO.N,Net-(U5-GPA0)*%
X148000000Y-108000000D02*
X160880000Y-120880000D01*
X160880000Y-120880000D02*
X161790000Y-120880000D01*
X143230000Y-87500000D02*
X144513032Y-87500000D01*
X148000000Y-90986968D02*
X148000000Y-108000000D01*
X144513032Y-87500000D02*
X148000000Y-90986968D01*
%TO.N,Net-(U5-GPA1)*%
X139290000Y-116210000D02*
X139290000Y-120880000D01*
X147500000Y-91462388D02*
X147500000Y-108000000D01*
X144807612Y-88770000D02*
X147500000Y-91462388D01*
X143230000Y-88770000D02*
X144807612Y-88770000D01*
X147500000Y-108000000D02*
X139290000Y-116210000D01*
%TO.N,Net-(U5-GPA2)*%
X147000000Y-107500000D02*
X135500000Y-119000000D01*
X145063306Y-90040000D02*
X147000000Y-91976694D01*
X147000000Y-91976694D02*
X147000000Y-107500000D01*
X143230000Y-90040000D02*
X145063306Y-90040000D01*
X118670000Y-119000000D02*
X116790000Y-120880000D01*
X135500000Y-119000000D02*
X118670000Y-119000000D01*
%TO.N,Net-(U5-GPA3)*%
X146500000Y-107000000D02*
X135000000Y-118500000D01*
X146500000Y-92499999D02*
X146500000Y-107000000D01*
X135000000Y-118500000D02*
X96670000Y-118500000D01*
X143230000Y-91310000D02*
X145310001Y-91310000D01*
X145310001Y-91310000D02*
X146500000Y-92499999D01*
X96670000Y-118500000D02*
X94290000Y-120880000D01*
%TO.N,Net-(U5-GPA4)*%
X146000000Y-97500000D02*
X143080000Y-100420000D01*
X143230000Y-92580000D02*
X144947952Y-92580000D01*
X143080000Y-100420000D02*
X126540000Y-100420000D01*
X146000000Y-93632048D02*
X146000000Y-97500000D01*
X144947952Y-92580000D02*
X146000000Y-93632048D01*
%TO.N,Net-(U5-GPA5)*%
X145500000Y-94500000D02*
X145500000Y-97000000D01*
X105960000Y-98500000D02*
X104040000Y-100420000D01*
X143230000Y-93850000D02*
X144850000Y-93850000D01*
X145500000Y-97000000D02*
X144000000Y-98500000D01*
X144000000Y-98500000D02*
X105960000Y-98500000D01*
X144850000Y-93850000D02*
X145500000Y-94500000D01*
%TO.N,Net-(U2-CAPM)*%
X154480130Y-41525000D02*
X152955130Y-40000000D01*
X152955130Y-40000000D02*
X152362500Y-40000000D01*
X155137500Y-41525000D02*
X154480130Y-41525000D01*
%TO.N,Net-(U5-A0)*%
X140275000Y-79880000D02*
X140030000Y-79635000D01*
X143230000Y-79880000D02*
X140275000Y-79880000D01*
%TO.N,Net-(U2-CAPP)*%
X153893134Y-40225000D02*
X155137500Y-40225000D01*
X152892134Y-39224000D02*
X153893134Y-40225000D01*
X151413500Y-39224000D02*
X152892134Y-39224000D01*
X150637500Y-40000000D02*
X151413500Y-39224000D01*
%TO.N,Net-(U2-VNEG)*%
X152362500Y-41500000D02*
X153000000Y-41500000D01*
X153000000Y-41500000D02*
X153675000Y-42175000D01*
X153675000Y-42175000D02*
X155137500Y-42175000D01*
%TO.N,Net-(U5-A2)*%
X141730000Y-82420000D02*
X141515000Y-82635000D01*
X141515000Y-82635000D02*
X140030000Y-82635000D01*
X143230000Y-82420000D02*
X141730000Y-82420000D01*
%TO.N,Net-(U5-A1)*%
X140030000Y-81135000D02*
X143215000Y-81135000D01*
X143215000Y-81135000D02*
X143230000Y-81150000D01*
%TO.N,Net-(U3-THERM)*%
X83242500Y-35757500D02*
X82000000Y-37000000D01*
X83667500Y-35757500D02*
X83242500Y-35757500D01*
X82000000Y-37000000D02*
X80912500Y-37000000D01*
D54*
%TO.N,Net-(U6-VI)*%
X84285000Y-32500000D02*
X84605000Y-32820000D01*
X83500000Y-33590000D02*
X83667500Y-33757500D01*
X83500000Y-32500000D02*
X84285000Y-32500000D01*
X83500000Y-32500000D02*
X83500000Y-25862500D01*
X83500000Y-32500000D02*
X83500000Y-33590000D01*
D55*
%TO.N,Net-(D7-A)*%
X93770000Y-63440000D02*
X97060000Y-63440000D01*
X97060000Y-63440000D02*
X97120000Y-63500000D01*
%TO.N,Net-(U5-GPA7)*%
X98770000Y-63500000D02*
X103770000Y-58500000D01*
X103770000Y-58500000D02*
X110298700Y-58500000D01*
X141890000Y-96390000D02*
X143230000Y-96390000D01*
X135750000Y-83951300D02*
X135750000Y-90250000D01*
X110298700Y-58500000D02*
X135750000Y-83951300D01*
X135750000Y-90250000D02*
X141890000Y-96390000D01*
%TO.N,MIDI IN*%
X91500000Y-44500000D02*
X82000000Y-54000000D01*
X82000000Y-54000000D02*
X75553600Y-54000000D01*
X75553600Y-54000000D02*
X70496320Y-59057280D01*
X121000000Y-27500000D02*
X121500000Y-27500000D01*
X120051000Y-37448943D02*
X112999943Y-44500000D01*
X121000000Y-27500000D02*
X120051000Y-28449000D01*
X120051000Y-28449000D02*
X120051000Y-37448943D01*
X121770000Y-27230000D02*
X123880000Y-27230000D01*
X112999943Y-44500000D02*
X91500000Y-44500000D01*
X121500000Y-27500000D02*
X121770000Y-27230000D01*
%TO.N,Net-(D6-A)*%
X97090000Y-57970000D02*
X97120000Y-58000000D01*
X93770000Y-57970000D02*
X97090000Y-57970000D01*
%TO.N,Net-(U5-GPA6)*%
X136230000Y-89687499D02*
X136230000Y-83864200D01*
X141662501Y-95120000D02*
X136230000Y-89687499D01*
X143230000Y-95120000D02*
X141662501Y-95120000D01*
X136230000Y-83864200D02*
X110365800Y-58000000D01*
X110365800Y-58000000D02*
X98770000Y-58000000D01*
%TO.N,Net-(D5-A)*%
X93770000Y-52500000D02*
X97120000Y-52500000D01*
%TO.N,Net-(U5-GPB7)*%
X98770000Y-52500000D02*
X100000000Y-52500000D01*
X143829000Y-76829000D02*
X130329000Y-76829000D01*
X152530000Y-87500000D02*
X151000000Y-87500000D01*
X130329000Y-76829000D02*
X107000000Y-53500000D01*
X150131000Y-86631000D02*
X150131000Y-83131000D01*
X150131000Y-83131000D02*
X143829000Y-76829000D01*
X151000000Y-87500000D02*
X150131000Y-86631000D01*
X107000000Y-53500000D02*
X101500000Y-53500000D01*
%TO.N,Net-(U5-GPB6)*%
X149730000Y-83297100D02*
X149730000Y-87230000D01*
X151270000Y-88770000D02*
X152530000Y-88770000D01*
X83550000Y-57200000D02*
X85850000Y-54900000D01*
X108432900Y-55500000D02*
X130162900Y-77230000D01*
X99500000Y-55500000D02*
X108432900Y-55500000D01*
X85850000Y-54900000D02*
X97500000Y-54900000D01*
X83550000Y-57200000D02*
X79450000Y-57200000D01*
X143662900Y-77230000D02*
X149730000Y-83297100D01*
X130162900Y-77230000D02*
X143662900Y-77230000D01*
X149730000Y-87230000D02*
X151270000Y-88770000D01*
%TO.N,Shift Key*%
X223725735Y-55274265D02*
X230150000Y-48850000D01*
X115896100Y-53000000D02*
X116005100Y-53109000D01*
X116337300Y-53109000D02*
X168477626Y-53109000D01*
X109000000Y-49600000D02*
X112496100Y-49600000D01*
X76277279Y-41277280D02*
X70496320Y-41277280D01*
X77499999Y-42500000D02*
X76277279Y-41277280D01*
X230150000Y-44750000D02*
X230150000Y-48850000D01*
X115770200Y-52874100D02*
X115896100Y-53000000D01*
X78000000Y-42500000D02*
X77499999Y-42500000D01*
X112496100Y-49600000D02*
X115770200Y-52874100D01*
X116005100Y-53109000D02*
X116337300Y-53109000D01*
X173074265Y-55274265D02*
X223725735Y-55274265D01*
X168477626Y-53109000D02*
X170434313Y-55065687D01*
%TO.N,Rotary A*%
X95000000Y-48000000D02*
X92500000Y-50500000D01*
X118201300Y-51906000D02*
X118164400Y-51906000D01*
X181308200Y-51906000D02*
X180976000Y-51906000D01*
X162450364Y-51906000D02*
X118731500Y-51906000D01*
X118164400Y-51906000D02*
X118067100Y-51906000D01*
X117634200Y-51906000D02*
X117536900Y-51906000D01*
X115998400Y-51401000D02*
X115798700Y-51201300D01*
X117402700Y-51906000D02*
X117302000Y-51906000D01*
X115328900Y-50731500D02*
X115094000Y-50496600D01*
X115563800Y-50966400D02*
X115328900Y-50731500D01*
X116906000Y-51906000D02*
X116835600Y-51906000D01*
X116771800Y-51906000D02*
X116637600Y-51906000D01*
X117204700Y-51906000D02*
X117167800Y-51906000D01*
X117070500Y-51906000D02*
X116969800Y-51906000D01*
X116969800Y-51906000D02*
X116906000Y-51906000D01*
X163446964Y-51906000D02*
X163114764Y-51906000D01*
X116268500Y-51671100D02*
X116033600Y-51436200D01*
X115094000Y-50496600D02*
X112597400Y-48000000D01*
X73613600Y-53400000D02*
X70496320Y-56517280D01*
X118496600Y-51906000D02*
X118399300Y-51906000D01*
X183687100Y-51500000D02*
X183516000Y-51671100D01*
X200750000Y-51500000D02*
X183687100Y-51500000D01*
X116835600Y-51906000D02*
X116771800Y-51906000D01*
X162782564Y-51906000D02*
X162450364Y-51906000D01*
X88500000Y-50500000D02*
X85500000Y-53500000D01*
X115763500Y-51166100D02*
X115563800Y-50966400D01*
X163114764Y-51906000D02*
X162782564Y-51906000D01*
X117536900Y-51906000D02*
X117500000Y-51906000D01*
X182948900Y-51906000D02*
X181308200Y-51906000D01*
X223750000Y-28500000D02*
X200750000Y-51500000D01*
X116637600Y-51906000D02*
X116503400Y-51906000D01*
X117966400Y-51906000D02*
X117869100Y-51906000D01*
X115798700Y-51201300D02*
X115763500Y-51166100D01*
X117167800Y-51906000D02*
X117104000Y-51906000D01*
X118067100Y-51906000D02*
X117966400Y-51906000D01*
X164111364Y-51906000D02*
X163779164Y-51906000D01*
X117302000Y-51906000D02*
X117204700Y-51906000D01*
X164443564Y-51906000D02*
X164111364Y-51906000D01*
X180976000Y-51906000D02*
X180643800Y-51906000D01*
X163779164Y-51906000D02*
X163446964Y-51906000D01*
X117104000Y-51906000D02*
X117070500Y-51906000D01*
X81500000Y-53400000D02*
X73613600Y-53400000D01*
X117869100Y-51906000D02*
X117832200Y-51906000D01*
X116503400Y-51906000D02*
X116268500Y-51671100D01*
X117734900Y-51906000D02*
X117634200Y-51906000D01*
X118731500Y-51906000D02*
X118496600Y-51906000D01*
X92500000Y-50500000D02*
X88500000Y-50500000D01*
X183281100Y-51906000D02*
X182948900Y-51906000D01*
X117500000Y-51906000D02*
X117436200Y-51906000D01*
X117436200Y-51906000D02*
X117402700Y-51906000D01*
X117832200Y-51906000D02*
X117734900Y-51906000D01*
X183516000Y-51671100D02*
X183281100Y-51906000D01*
X118399300Y-51906000D02*
X118201300Y-51906000D01*
X116033600Y-51436200D02*
X115998400Y-51401000D01*
X112597400Y-48000000D02*
X95000000Y-48000000D01*
X180643800Y-51906000D02*
X164443564Y-51906000D01*
%TO.N,OCT +*%
X78300000Y-72200000D02*
X79450000Y-72200000D01*
X83550000Y-72200000D02*
X79450000Y-72200000D01*
%TO.N,OCT -*%
X83550000Y-81500000D02*
X79450000Y-81500000D01*
X79450000Y-81500000D02*
X78500000Y-81500000D01*
%TO.N,Rotary B*%
X182782800Y-52307000D02*
X181474300Y-52307000D01*
X181142100Y-52307000D02*
X180809900Y-52307000D01*
X118897600Y-52307000D02*
X118662700Y-52307000D01*
X117901000Y-52307000D02*
X117800300Y-52307000D01*
X117072100Y-52307000D02*
X117038600Y-52307000D01*
X80500000Y-65500000D02*
X49399040Y-65500000D01*
X114693000Y-50662700D02*
X113865800Y-49835500D01*
X163613064Y-52307000D02*
X163280864Y-52307000D01*
X116471500Y-52307000D02*
X116337300Y-52307000D01*
X164609664Y-52307000D02*
X164277464Y-52307000D01*
X117038600Y-52307000D02*
X117001700Y-52307000D01*
X204317100Y-48500000D02*
X201151000Y-51666100D01*
X117370800Y-52307000D02*
X117333900Y-52307000D01*
X118565400Y-52307000D02*
X118367400Y-52307000D01*
X180809900Y-52307000D02*
X180477700Y-52307000D01*
X117568800Y-52307000D02*
X117468100Y-52307000D01*
X115362500Y-51332200D02*
X115162800Y-51132500D01*
X118233200Y-52307000D02*
X118132500Y-52307000D01*
X116605700Y-52307000D02*
X116471500Y-52307000D01*
X118662700Y-52307000D02*
X118565400Y-52307000D01*
X201151000Y-51666100D02*
X200916100Y-51901000D01*
X183682100Y-52072100D02*
X183447200Y-52307000D01*
X208750000Y-48500000D02*
X204317100Y-48500000D01*
X98000000Y-55500000D02*
X90500000Y-55500000D01*
X163280864Y-52307000D02*
X162948664Y-52307000D01*
X116102400Y-52072100D02*
X115867500Y-51837200D01*
X116803700Y-52307000D02*
X116739900Y-52307000D01*
X115597400Y-51567100D02*
X115397700Y-51367400D01*
X117135900Y-52307000D02*
X117072100Y-52307000D01*
X117001700Y-52307000D02*
X116937900Y-52307000D01*
X117800300Y-52307000D02*
X117703000Y-52307000D01*
X117270100Y-52307000D02*
X117236600Y-52307000D01*
X115162800Y-51132500D02*
X114927900Y-50897600D01*
X116337300Y-52307000D02*
X116102400Y-52072100D01*
X117666100Y-52307000D02*
X117602300Y-52307000D01*
X115867500Y-51837200D02*
X115832300Y-51802000D01*
X162284264Y-52307000D02*
X118897600Y-52307000D01*
X223750000Y-33500000D02*
X208750000Y-48500000D01*
X112530300Y-48500000D02*
X105000000Y-48500000D01*
X162948664Y-52307000D02*
X162616464Y-52307000D01*
X90500000Y-55500000D02*
X80500000Y-65500000D01*
X116904400Y-52307000D02*
X116803700Y-52307000D01*
X117468100Y-52307000D02*
X117370800Y-52307000D01*
X180477700Y-52307000D02*
X164609664Y-52307000D01*
X49399040Y-65500000D02*
X45496320Y-61597280D01*
X116937900Y-52307000D02*
X116904400Y-52307000D01*
X200817100Y-52000000D02*
X183754200Y-52000000D01*
X164277464Y-52307000D02*
X163945264Y-52307000D01*
X117236600Y-52307000D02*
X117135900Y-52307000D01*
X117602300Y-52307000D02*
X117568800Y-52307000D01*
X115632600Y-51602300D02*
X115597400Y-51567100D01*
X115397700Y-51367400D02*
X115362500Y-51332200D01*
X116739900Y-52307000D02*
X116669500Y-52307000D01*
X162616464Y-52307000D02*
X162284264Y-52307000D01*
X118132500Y-52307000D02*
X118035200Y-52307000D01*
X183115000Y-52307000D02*
X182782800Y-52307000D01*
X200916100Y-51901000D02*
X200817100Y-52000000D01*
X113865800Y-49835500D02*
X112530300Y-48500000D01*
X118330500Y-52307000D02*
X118233200Y-52307000D01*
X105000000Y-48500000D02*
X98000000Y-55500000D01*
X115832300Y-51802000D02*
X115632600Y-51602300D01*
X117333900Y-52307000D02*
X117270100Y-52307000D01*
X183447200Y-52307000D02*
X183115000Y-52307000D01*
X163945264Y-52307000D02*
X163613064Y-52307000D01*
X183754200Y-52000000D02*
X183682100Y-52072100D01*
X118035200Y-52307000D02*
X117998300Y-52307000D01*
X118367400Y-52307000D02*
X118330500Y-52307000D01*
X114927900Y-50897600D02*
X114693000Y-50662700D01*
X117998300Y-52307000D02*
X117901000Y-52307000D01*
X181474300Y-52307000D02*
X181142100Y-52307000D01*
X116669500Y-52307000D02*
X116605700Y-52307000D01*
X117703000Y-52307000D02*
X117666100Y-52307000D01*
%TO.N,Rotary SW*%
X78567100Y-68000000D02*
X49359040Y-68000000D01*
X237250000Y-34500000D02*
X226500000Y-34500000D01*
X225500000Y-35500000D02*
X222500000Y-35500000D01*
X171000000Y-54500000D02*
X169208000Y-52708000D01*
X116171200Y-52708000D02*
X112463200Y-49000000D01*
X105067100Y-49000000D02*
X98067100Y-56000000D01*
X203400000Y-54600000D02*
X174000000Y-54600000D01*
X222500000Y-35500000D02*
X203400000Y-54600000D01*
X49359040Y-68000000D02*
X45496320Y-64137280D01*
X226500000Y-34500000D02*
X225500000Y-35500000D01*
X112463200Y-49000000D02*
X105067100Y-49000000D01*
X169208000Y-52708000D02*
X116171200Y-52708000D01*
X90567100Y-56000000D02*
X78567100Y-68000000D01*
X98067100Y-56000000D02*
X90567100Y-56000000D01*
X238250000Y-33500000D02*
X237250000Y-34500000D01*
%TO.N,Net-(U5-INTA)*%
X141500000Y-84960000D02*
X143230000Y-84960000D01*
X140105000Y-84210000D02*
X140030000Y-84135000D01*
X143230000Y-83690000D02*
X143230000Y-86230000D01*
X140105000Y-85635000D02*
X140825000Y-85635000D01*
X140105000Y-85635000D02*
X140105000Y-84210000D01*
X140825000Y-85635000D02*
X141500000Y-84960000D01*
%TO.N,Net-(D4-A)*%
X135500000Y-27250000D02*
X145250000Y-27250000D01*
X145250000Y-27250000D02*
X148500000Y-30500000D01*
X131520000Y-27250000D02*
X131500000Y-27230000D01*
X135500000Y-27250000D02*
X131520000Y-27250000D01*
%TO.N,Net-(U2-XSMT)*%
X163000000Y-42500000D02*
X162025000Y-41525000D01*
X162025000Y-41525000D02*
X160862500Y-41525000D01*
X163675000Y-42500000D02*
X163000000Y-42500000D01*
%TO.N,Net-(U2-LDOO)*%
X163637500Y-41000000D02*
X160987500Y-41000000D01*
X160987500Y-41000000D02*
X160862500Y-40875000D01*
%TO.N,Net-(SW18-A)*%
X88742500Y-33757500D02*
X89000000Y-33500000D01*
D54*
X87542500Y-34257500D02*
X88242500Y-34257500D01*
X77111874Y-27376000D02*
X82487874Y-22000000D01*
X84512126Y-22000000D02*
X89775000Y-27262874D01*
X87542500Y-33757500D02*
X88742500Y-33757500D01*
X88242500Y-34257500D02*
X89000000Y-33500000D01*
X89775000Y-27262874D02*
X89775000Y-33000000D01*
X86605000Y-32820000D02*
X86785000Y-33000000D01*
X89000000Y-33500000D02*
X89500000Y-33000000D01*
X40400000Y-24930000D02*
X42846000Y-27376000D01*
X42846000Y-27376000D02*
X77111874Y-27376000D01*
D55*
X89500000Y-33000000D02*
X89775000Y-33000000D01*
D54*
X86785000Y-33000000D02*
X89775000Y-33000000D01*
X82487874Y-22000000D02*
X84512126Y-22000000D01*
%TD*%
M02*
