M48
; DRILL file {KiCad 9.0.0} date 2026-01-06T01:29:06-0500
; FORMAT={-:-/ absolute / metric / decimal}
; #@! TF.CreationDate,2026-01-06T01:29:06-05:00
; #@! TF.GenerationSoftware,Kicad,Pcbnew,9.0.0
; #@! TF.FileFunction,Plated,1,4,PTH
FMAT,2
METRIC
; #@! TA.AperFunction,Plated,PTH,ViaDrill
T1C0.300
; #@! TA.AperFunction,Plated,PTH,ComponentDrill
T2C0.400
; #@! TA.AperFunction,Plated,PTH,ComponentDrill
T3C0.800
; #@! TA.AperFunction,Plated,PTH,ComponentDrill
T4C0.900
; #@! TA.AperFunction,Plated,PTH,ComponentDrill
T5C1.000
; #@! TA.AperFunction,Plated,PTH,ComponentDrill
T6C1.100
; #@! TA.AperFunction,Plated,PTH,ComponentDrill
T7C1.300
; #@! TA.AperFunction,Plated,PTH,ComponentDrill
T8C1.500
; #@! TA.AperFunction,Plated,PTH,ComponentDrill
T9C1.600
%
G90
G05
T1
X30.0Y-112.5
X32.0Y-112.5
X34.0Y-112.5
X34.5Y-28.5
X76.0Y-62.0
X78.0Y-37.0
X78.0Y-42.5
X78.1Y-62.0
X78.1Y-83.1
X78.2Y-58.8
X78.2Y-73.8
X78.3Y-72.2
X78.5Y-34.0
X78.5Y-35.5
X78.5Y-81.5
X79.0Y-66.5
X79.5Y-44.0
X80.0Y-26.775
X81.0Y-46.0
X81.0Y-64.0
X81.5Y-29.775
X81.5Y-32.5
X81.5Y-44.5
X81.5Y-53.4
X84.5Y-48.5
X85.0Y-31.5
X85.0Y-34.0
X85.0Y-35.5
X85.275Y-30.0
X85.434Y-47.566
X85.5Y-53.5
X85.605Y-34.758
X86.0Y-31.5
X86.0Y-47.0
X86.5Y-34.0
X86.5Y-35.5
X86.5Y-46.0
X88.5Y-28.775
X88.5Y-48.5
X89.0Y-31.5
X89.15Y-40.65
X89.488Y-47.615
X90.0Y-47.0
X90.5Y-31.5
X91.0Y-46.0
X93.0Y-33.0
X93.0Y-34.5
X93.0Y-36.0
X97.5Y-54.9
X99.5Y-55.5
X100.0Y-52.5
X101.5Y-53.5
X103.175Y-42.825
X108.0Y-36.5
X109.0Y-49.6
X112.5Y-36.0
X113.825Y-42.825
X117.5Y-27.5
X117.5Y-29.5
X121.5Y-74.7
X124.0Y-73.5
X125.0Y-74.1
X128.5Y-74.1
X137.23Y-81.135
X137.23Y-84.135
X137.23Y-85.635
X149.5Y-41.5
X150.5Y-48.5
X151.137Y-36.137
X151.137Y-37.862
X152.5Y-48.5
X154.23Y-84.96
X156.5Y-38.0
X156.5Y-41.0
X156.5Y-45.0
X159.0Y-42.0
X159.23Y-84.92
X159.5Y-40.5
X159.5Y-45.0
X163.637Y-38.0
X166.5Y-37.5
X166.5Y-41.0
X166.5Y-42.5
X170.225Y-69.58
X170.434Y-55.066
X171.0Y-54.5
X173.074Y-55.274
X174.0Y-54.6
X181.54Y-50.54
X182.0Y-53.1
X183.81Y-50.81
X184.5Y-53.1
X189.725Y-69.58
X231.75Y-43.5
T3
X45.496Y-23.497
X45.496Y-26.037
X45.496Y-28.577
X45.496Y-31.117
X45.496Y-33.657
X45.496Y-36.197
X45.496Y-38.737
X45.496Y-41.277
X45.496Y-43.817
X45.496Y-46.357
X45.496Y-48.897
X45.496Y-51.437
X45.496Y-53.977
X45.496Y-56.517
X45.496Y-59.057
X45.496Y-61.597
X45.496Y-64.137
X45.496Y-66.677
X45.496Y-69.217
X45.496Y-71.757
X45.496Y-74.297
X45.496Y-76.837
X70.496Y-31.117
X70.496Y-33.657
X70.496Y-36.197
X70.496Y-38.737
X70.496Y-41.277
X70.496Y-43.817
X70.496Y-46.357
X70.496Y-48.897
X70.496Y-51.437
X70.496Y-53.977
X70.496Y-56.517
X70.496Y-59.057
X70.496Y-61.597
X70.496Y-64.137
X70.496Y-66.677
X70.496Y-69.217
X70.496Y-71.757
X70.496Y-74.297
X70.496Y-76.837
X70.5Y-23.5
X70.5Y-26.04
X70.5Y-28.58
X123.88Y-24.69
X123.88Y-27.23
X123.88Y-29.77
X123.88Y-32.31
X131.5Y-24.69
X131.5Y-27.23
X131.5Y-29.77
X131.5Y-32.31
T4
X91.23Y-52.5
X91.23Y-57.97
X91.23Y-63.44
X93.77Y-52.5
X93.77Y-57.97
X93.77Y-63.44
T5
X108.225Y-60.025
X108.225Y-62.525
X108.225Y-65.025
X108.225Y-74.525
X108.225Y-77.025
X108.225Y-79.525
X131.225Y-67.08
X131.225Y-69.58
X131.225Y-72.08
X150.725Y-67.08
X150.725Y-69.58
X150.725Y-72.08
X170.225Y-67.08
X170.225Y-69.58
X170.225Y-72.08
X174.225Y-31.975
X174.225Y-34.475
X174.225Y-36.975
X189.725Y-67.08
X189.725Y-69.58
X189.725Y-72.08
X203.11Y-23.89
X205.65Y-23.89
X208.19Y-23.89
X210.73Y-23.89
X223.75Y-28.5
X223.75Y-31.0
X223.75Y-33.5
X238.25Y-28.5
X238.25Y-33.5
T6
X49.612Y-103.82
X52.112Y-103.82
X54.612Y-103.82
X60.842Y-110.05
X60.842Y-112.55
X60.842Y-115.05
T7
X48.862Y-118.3
X48.862Y-122.8
X55.362Y-118.3
X55.362Y-122.8
T8
X87.94Y-123.42
X94.29Y-120.88
X97.69Y-102.96
X104.04Y-100.42
X110.44Y-123.42
X116.79Y-120.88
X120.19Y-102.96
X126.54Y-100.42
X132.94Y-123.42
X139.29Y-120.88
X155.44Y-123.42
X161.79Y-120.88
X165.19Y-102.96
X171.54Y-100.42
X177.94Y-123.42
X184.29Y-120.88
X187.69Y-102.96
X194.04Y-100.42
X200.44Y-123.42
X206.79Y-120.88
X210.19Y-102.96
X216.54Y-100.42
X222.94Y-123.42
X229.29Y-120.88
T9
X45.788Y-107.55
X45.788Y-117.55
X58.438Y-107.55
X58.438Y-117.55
T2
G00X138.5Y-30.0
M15
G01X138.5Y-31.0
M16
G05
G00X144.0Y-25.5
M15
G01X143.0Y-25.5
M16
G05
G00X148.5Y-31.0
M15
G01X148.5Y-30.0
M16
G05
G00X155.23Y-30.0
M15
G01X155.23Y-31.0
M16
G05
G00X160.73Y-25.5
M15
G01X159.73Y-25.5
M16
G05
G00X165.23Y-31.0
M15
G01X165.23Y-30.0
M16
G05
T8
G00X115.075Y-56.925
M15
G01X116.375Y-56.925
M16
G05
G00X115.075Y-68.125
M15
G01X116.375Y-68.125
M16
G05
G00X115.075Y-71.425
M15
G01X116.375Y-71.425
M16
G05
G00X115.075Y-82.625
M15
G01X116.375Y-82.625
M16
G05
G00X138.075Y-63.98
M15
G01X139.375Y-63.98
M16
G05
G00X138.075Y-75.18
M15
G01X139.375Y-75.18
M16
G05
G00X157.575Y-63.98
M15
G01X158.875Y-63.98
M16
G05
G00X157.575Y-75.18
M15
G01X158.875Y-75.18
M16
G05
G00X177.075Y-63.98
M15
G01X178.375Y-63.98
M16
G05
G00X177.075Y-75.18
M15
G01X178.375Y-75.18
M16
G05
G00X181.075Y-28.875
M15
G01X182.375Y-28.875
M16
G05
G00X181.075Y-40.075
M15
G01X182.375Y-40.075
M16
G05
G00X196.575Y-63.98
M15
G01X197.875Y-63.98
M16
G05
G00X196.575Y-75.18
M15
G01X197.875Y-75.18
M16
G05
G00X230.6Y-25.4
M15
G01X231.9Y-25.4
M16
G05
G00X230.6Y-36.6
M15
G01X231.9Y-36.6
M16
G05
M30
