M48
; DRILL file {KiCad 9.0.0} date 2026-01-06T01:29:06-0500
; FORMAT={-:-/ absolute / metric / decimal}
; #@! TF.CreationDate,2026-01-06T01:29:06-05:00
; #@! TF.GenerationSoftware,Kicad,Pcbnew,9.0.0
; #@! TF.FileFunction,NonPlated,1,4,NPTH
FMAT,2
METRIC
; #@! TA.AperFunction,NonPlated,NPTH,ComponentDrill
T1C0.900
; #@! TA.AperFunction,NonPlated,NPTH,ComponentDrill
T2C1.200
; #@! TA.AperFunction,NonPlated,NPTH,ComponentDrill
T3C1.700
; #@! TA.AperFunction,NonPlated,NPTH,ComponentDrill
T4C2.390
; #@! TA.AperFunction,NonPlated,NPTH,ComponentDrill
T5C3.000
; #@! TA.AperFunction,NonPlated,NPTH,ComponentDrill
T6C3.450
; #@! TA.AperFunction,NonPlated,NPTH,ComponentDrill
T7C4.000
%
G90
G05
T1
X36.65Y-23.17
X39.65Y-23.17
T2
X138.5Y-23.0
X138.5Y-25.5
X143.5Y-30.5
X148.5Y-23.0
X148.5Y-25.5
X155.23Y-23.0
X155.23Y-25.5
X160.23Y-30.5
X165.23Y-23.0
X165.23Y-25.5
T3
X86.67Y-125.96
X96.42Y-105.5
X96.83Y-125.96
X106.58Y-105.5
X109.17Y-125.96
X118.92Y-105.5
X119.33Y-125.96
X129.08Y-105.5
X131.67Y-125.96
X141.83Y-125.96
X154.17Y-125.96
X163.92Y-105.5
X164.33Y-125.96
X174.08Y-105.5
X176.67Y-125.96
X186.42Y-105.5
X186.83Y-125.96
X196.58Y-105.5
X199.17Y-125.96
X208.92Y-105.5
X209.33Y-125.96
X219.08Y-105.5
X221.67Y-125.96
X231.83Y-125.96
T4
X24.0Y-34.57
T5
X17.0Y-27.5
X17.0Y-133.0
X94.5Y-85.0
X177.5Y-44.0
X181.0Y-85.0
X195.94Y-24.39
X195.94Y-46.39
X217.94Y-24.39
X217.94Y-46.39
X224.0Y-42.0
X233.5Y-105.5
T6
X24.0Y-98.1
X40.0Y-42.9
T7
X91.75Y-125.96
X101.5Y-105.5
X114.25Y-125.96
X124.0Y-105.5
X136.75Y-125.96
X159.25Y-125.96
X169.0Y-105.5
X181.75Y-125.96
X191.5Y-105.5
X204.25Y-125.96
X214.0Y-105.5
X226.75Y-125.96
M30
