%TF.GenerationSoftware,KiCad,Pcbnew,9.0.0*%
%TF.CreationDate,2026-01-06T01:29:00-05:00*%
%TF.ProjectId,NanoFreak,4e616e6f-4672-4656-916b-2e6b69636164,rev?*%
%TF.SameCoordinates,Original*%
%TF.FileFunction,Legend,Bot*%
%TF.FilePolarity,Positive*%
%FSLAX46Y46*%
G04 Gerber Fmt 4.6, Leading zero omitted, Abs format (unit mm)*
G04 Created by KiCad (PCBNEW 9.0.0) date 2026-01-06 01:29:00*
%MOMM*%
%LPD*%
G01*
G04 APERTURE LIST*
%ADD10C,0.150000*%
%ADD11C,0.120000*%
G04 APERTURE END LIST*
D10*
X20431009Y-69714285D02*
X20478628Y-69857142D01*
X20478628Y-69857142D02*
X20526247Y-69904761D01*
X20526247Y-69904761D02*
X20621485Y-69952380D01*
X20621485Y-69952380D02*
X20764342Y-69952380D01*
X20764342Y-69952380D02*
X20859580Y-69904761D01*
X20859580Y-69904761D02*
X20907200Y-69857142D01*
X20907200Y-69857142D02*
X20954819Y-69761904D01*
X20954819Y-69761904D02*
X20954819Y-69380952D01*
X20954819Y-69380952D02*
X19954819Y-69380952D01*
X19954819Y-69380952D02*
X19954819Y-69714285D01*
X19954819Y-69714285D02*
X20002438Y-69809523D01*
X20002438Y-69809523D02*
X20050057Y-69857142D01*
X20050057Y-69857142D02*
X20145295Y-69904761D01*
X20145295Y-69904761D02*
X20240533Y-69904761D01*
X20240533Y-69904761D02*
X20335771Y-69857142D01*
X20335771Y-69857142D02*
X20383390Y-69809523D01*
X20383390Y-69809523D02*
X20431009Y-69714285D01*
X20431009Y-69714285D02*
X20431009Y-69380952D01*
X19954819Y-70238095D02*
X19954819Y-70809523D01*
X20954819Y-70523809D02*
X19954819Y-70523809D01*
X20954819Y-71666666D02*
X20954819Y-71095238D01*
X20954819Y-71380952D02*
X19954819Y-71380952D01*
X19954819Y-71380952D02*
X20097676Y-71285714D01*
X20097676Y-71285714D02*
X20192914Y-71190476D01*
X20192914Y-71190476D02*
X20240533Y-71095238D01*
D11*
%TO.C,BT1*%
X21560000Y-31860000D02*
X28560000Y-31860000D01*
X21560000Y-109140000D02*
X21560000Y-31860000D01*
X26000000Y-26750000D02*
X26000000Y-29250000D01*
X26000000Y-114250000D02*
X26000000Y-111750000D01*
X27250000Y-28000000D02*
X24750000Y-28000000D01*
X28560000Y-31860000D02*
X28560000Y-27500000D01*
X28560000Y-109140000D02*
X21580000Y-109140000D01*
X35440000Y-109140000D02*
X42440000Y-109140000D01*
X42440000Y-31860000D02*
X35440000Y-31860000D01*
X42440000Y-109140000D02*
X42440000Y-31860000D01*
%TD*%
M02*
