%TF.GenerationSoftware,KiCad,Pcbnew,9.0.0*%
%TF.CreationDate,2026-01-06T01:29:00-05:00*%
%TF.ProjectId,NanoFreak,4e616e6f-4672-4656-916b-2e6b69636164,rev?*%
%TF.SameCoordinates,Original*%
%TF.FileFunction,Soldermask,Bot*%
%TF.FilePolarity,Negative*%
%FSLAX46Y46*%
G04 Gerber Fmt 4.6, Leading zero omitted, Abs format (unit mm)*
G04 Created by KiCad (PCBNEW 9.0.0) date 2026-01-06 01:29:00*
%MOMM*%
%LPD*%
G01*
G04 APERTURE LIST*
G04 Aperture macros list*
%AMRoundRect*
0 Rectangle with rounded corners*
0 $1 Rounding radius*
0 $2 $3 $4 $5 $6 $7 $8 $9 X,Y pos of 4 corners*
0 Add a 4 corners polygon primitive as box body*
4,1,4,$2,$3,$4,$5,$6,$7,$8,$9,$2,$3,0*
0 Add four circle primitives for the rounded corners*
1,1,$1+$1,$2,$3*
1,1,$1+$1,$4,$5*
1,1,$1+$1,$6,$7*
1,1,$1+$1,$8,$9*
0 Add four rect primitives between the rounded corners*
20,1,$1+$1,$2,$3,$4,$5,0*
20,1,$1+$1,$4,$5,$6,$7,0*
20,1,$1+$1,$6,$7,$8,$9,0*
20,1,$1+$1,$8,$9,$2,$3,0*%
G04 Aperture macros list end*
%ADD10C,1.700000*%
%ADD11C,4.000000*%
%ADD12C,2.200000*%
%ADD13R,2.000000X2.000000*%
%ADD14C,2.000000*%
%ADD15R,3.200000X2.000000*%
%ADD16R,1.800000X1.800000*%
%ADD17C,1.800000*%
%ADD18C,3.000000*%
%ADD19R,2.000000X1.200000*%
%ADD20O,2.000000X1.200000*%
%ADD21C,1.950000*%
%ADD22C,2.400000*%
%ADD23R,1.650000X1.650000*%
%ADD24C,1.650000*%
%ADD25C,0.900000*%
%ADD26RoundRect,0.190500X-0.762000X-0.444500X0.762000X-0.444500X0.762000X0.444500X-0.762000X0.444500X0*%
%ADD27C,1.200000*%
%ADD28O,1.200000X2.200000*%
%ADD29O,2.200000X1.200000*%
%ADD30RoundRect,0.250000X0.550000X0.550000X-0.550000X0.550000X-0.550000X-0.550000X0.550000X-0.550000X0*%
%ADD31C,1.600000*%
%ADD32C,2.390000*%
%ADD33C,3.450000*%
%ADD34R,6.350000X7.340000*%
G04 APERTURE END LIST*
D10*
%TO.C,SW11*%
X163920000Y-105500000D03*
D11*
X169000000Y-105500000D03*
D10*
X174080000Y-105500000D03*
D12*
X171540000Y-100420000D03*
X165190000Y-102960000D03*
%TD*%
D13*
%TO.C,RV2*%
X150725000Y-67080000D03*
D14*
X150725000Y-69580000D03*
X150725000Y-72080000D03*
D15*
X158225000Y-63980000D03*
X158225000Y-75180000D03*
%TD*%
D13*
%TO.C,RV5*%
X108225000Y-60025000D03*
D14*
X108225000Y-62525000D03*
X108225000Y-65025000D03*
D15*
X115725000Y-56925000D03*
X115725000Y-68125000D03*
%TD*%
D10*
%TO.C,SW12*%
X176670000Y-125960000D03*
D11*
X181750000Y-125960000D03*
D10*
X186830000Y-125960000D03*
D12*
X184290000Y-120880000D03*
X177940000Y-123420000D03*
%TD*%
D10*
%TO.C,SW14*%
X199170000Y-125960000D03*
D11*
X204250000Y-125960000D03*
D10*
X209330000Y-125960000D03*
D12*
X206790000Y-120880000D03*
X200440000Y-123420000D03*
%TD*%
D16*
%TO.C,D7*%
X91230000Y-63440000D03*
D17*
X93770000Y-63440000D03*
%TD*%
D13*
%TO.C,RV3*%
X170225000Y-67080000D03*
D14*
X170225000Y-69580000D03*
X170225000Y-72080000D03*
D15*
X177725000Y-63980000D03*
X177725000Y-75180000D03*
%TD*%
D13*
%TO.C,RV4*%
X189725000Y-67080000D03*
D14*
X189725000Y-69580000D03*
X189725000Y-72080000D03*
D15*
X197225000Y-63980000D03*
X197225000Y-75180000D03*
%TD*%
D18*
%TO.C,*%
X181000000Y-85000000D03*
%TD*%
D10*
%TO.C,SW5*%
X86670000Y-125960000D03*
D11*
X91750000Y-125960000D03*
D10*
X96830000Y-125960000D03*
D12*
X94290000Y-120880000D03*
X87940000Y-123420000D03*
%TD*%
D18*
%TO.C,*%
X17000000Y-133000000D03*
%TD*%
D10*
%TO.C,SW15*%
X208920000Y-105500000D03*
D11*
X214000000Y-105500000D03*
D10*
X219080000Y-105500000D03*
D12*
X216540000Y-100420000D03*
X210190000Y-102960000D03*
%TD*%
D18*
%TO.C,*%
X17000000Y-27500000D03*
%TD*%
D10*
%TO.C,SW16*%
X221670000Y-125960000D03*
D11*
X226750000Y-125960000D03*
D10*
X231830000Y-125960000D03*
D12*
X229290000Y-120880000D03*
X222940000Y-123420000D03*
%TD*%
D19*
%TO.C,U1*%
X70496320Y-76837280D03*
D20*
X70496320Y-74297280D03*
X70496320Y-71757280D03*
X70496320Y-69217280D03*
X70496320Y-66677280D03*
X70496320Y-64137280D03*
X70496320Y-61597280D03*
X70496320Y-59057280D03*
X70496320Y-56517280D03*
X70496320Y-53977280D03*
X70496320Y-51437280D03*
X70496320Y-48897280D03*
X70496320Y-46357280D03*
X70496320Y-43817280D03*
X70496320Y-41277280D03*
X70496320Y-38737280D03*
X70496320Y-36197280D03*
X70496320Y-33657280D03*
X70496320Y-31117280D03*
X70500000Y-28580000D03*
X70500000Y-26040000D03*
X70500000Y-23500000D03*
X45496320Y-23497280D03*
X45496320Y-26037280D03*
X45496320Y-28577280D03*
X45496320Y-31117280D03*
X45496320Y-33657280D03*
X45496320Y-36197280D03*
X45496320Y-38737280D03*
X45496320Y-41277280D03*
X45496320Y-43817280D03*
X45496320Y-46357280D03*
X45496320Y-48897280D03*
X45496320Y-51437280D03*
X45496320Y-53977280D03*
X45496320Y-56517280D03*
X45496320Y-59057280D03*
X45496320Y-61597280D03*
X45496320Y-64137280D03*
X45496320Y-66677280D03*
X45496320Y-69217280D03*
X45496320Y-71757280D03*
X45496320Y-74297280D03*
X45496320Y-76837280D03*
%TD*%
D21*
%TO.C,U7*%
X48862500Y-118300000D03*
X55362500Y-118300000D03*
X48862500Y-122800000D03*
X55362500Y-122800000D03*
D22*
X58437500Y-107550000D03*
X45787500Y-107550000D03*
X45787500Y-117550000D03*
X58437500Y-117550000D03*
D23*
X60842500Y-115050000D03*
D24*
X60842500Y-112550000D03*
X60842500Y-110050000D03*
X54612500Y-103820000D03*
X52112500Y-103820000D03*
X49612500Y-103820000D03*
%TD*%
D13*
%TO.C,RV7*%
X174225000Y-31975000D03*
D14*
X174225000Y-34475000D03*
X174225000Y-36975000D03*
D15*
X181725000Y-28875000D03*
X181725000Y-40075000D03*
%TD*%
D18*
%TO.C,*%
X233500000Y-105500000D03*
%TD*%
D10*
%TO.C,SW8*%
X118920000Y-105500000D03*
D11*
X124000000Y-105500000D03*
D10*
X129080000Y-105500000D03*
D12*
X126540000Y-100420000D03*
X120190000Y-102960000D03*
%TD*%
D25*
%TO.C,SW18*%
X39650000Y-23170000D03*
X36650000Y-23170000D03*
%TD*%
D11*
%TO.C,U8*%
X195940000Y-24390000D03*
X195940000Y-46390000D03*
X217940000Y-24390000D03*
X217940000Y-46390000D03*
D26*
X203110000Y-23890000D03*
X205650000Y-23890000D03*
X208190000Y-23890000D03*
X210730000Y-23890000D03*
%TD*%
D13*
%TO.C,SW1*%
X223750000Y-28500000D03*
D14*
X223750000Y-33500000D03*
X223750000Y-31000000D03*
D15*
X231250000Y-25400000D03*
X231250000Y-36600000D03*
D14*
X238250000Y-33500000D03*
X238250000Y-28500000D03*
%TD*%
D10*
%TO.C,SW6*%
X96420000Y-105500000D03*
D11*
X101500000Y-105500000D03*
D10*
X106580000Y-105500000D03*
D12*
X104040000Y-100420000D03*
X97690000Y-102960000D03*
%TD*%
D10*
%TO.C,SW9*%
X131670000Y-125960000D03*
D11*
X136750000Y-125960000D03*
D10*
X141830000Y-125960000D03*
D12*
X139290000Y-120880000D03*
X132940000Y-123420000D03*
%TD*%
D13*
%TO.C,RV6*%
X108225000Y-74525000D03*
D14*
X108225000Y-77025000D03*
X108225000Y-79525000D03*
D15*
X115725000Y-71425000D03*
X115725000Y-82625000D03*
%TD*%
D10*
%TO.C,SW7*%
X109170000Y-125960000D03*
D11*
X114250000Y-125960000D03*
D10*
X119330000Y-125960000D03*
D12*
X116790000Y-120880000D03*
X110440000Y-123420000D03*
%TD*%
D27*
%TO.C,J2*%
X148500000Y-25500000D03*
X148500000Y-23000000D03*
X143500000Y-30500000D03*
X138500000Y-25500000D03*
X138500000Y-23000000D03*
D28*
X148500000Y-30500000D03*
D29*
X143500000Y-25500000D03*
D28*
X138500000Y-30500000D03*
%TD*%
D18*
%TO.C,*%
X177500000Y-44000000D03*
%TD*%
D10*
%TO.C,SW10*%
X154170000Y-125960000D03*
D11*
X159250000Y-125960000D03*
D10*
X164330000Y-125960000D03*
D12*
X161790000Y-120880000D03*
X155440000Y-123420000D03*
%TD*%
D16*
%TO.C,D6*%
X91230000Y-57970000D03*
D17*
X93770000Y-57970000D03*
%TD*%
D30*
%TO.C,U4*%
X131500000Y-32310000D03*
D31*
X131500000Y-29770000D03*
X131500000Y-27230000D03*
X131500000Y-24690000D03*
X123880000Y-24690000D03*
X123880000Y-27230000D03*
X123880000Y-29770000D03*
X123880000Y-32310000D03*
%TD*%
D18*
%TO.C,*%
X224000000Y-42000000D03*
%TD*%
%TO.C,*%
X94500000Y-85000000D03*
%TD*%
D27*
%TO.C,J1*%
X165230000Y-25500000D03*
X165230000Y-23000000D03*
X160230000Y-30500000D03*
X155230000Y-25500000D03*
X155230000Y-23000000D03*
D28*
X165230000Y-30500000D03*
D29*
X160230000Y-25500000D03*
D28*
X155230000Y-30500000D03*
%TD*%
D10*
%TO.C,SW13*%
X186420000Y-105500000D03*
D11*
X191500000Y-105500000D03*
D10*
X196580000Y-105500000D03*
D12*
X194040000Y-100420000D03*
X187690000Y-102960000D03*
%TD*%
D16*
%TO.C,D5*%
X91230000Y-52500000D03*
D17*
X93770000Y-52500000D03*
%TD*%
D13*
%TO.C,RV1*%
X131225000Y-67080000D03*
D14*
X131225000Y-69580000D03*
X131225000Y-72080000D03*
D15*
X138725000Y-63980000D03*
X138725000Y-75180000D03*
%TD*%
D32*
%TO.C,BT1*%
X24000000Y-34570000D03*
D33*
X40000000Y-42900000D03*
X24000000Y-98100000D03*
D34*
X32000000Y-31170000D03*
X32000000Y-109830000D03*
%TD*%
M02*
