%TF.GenerationSoftware,KiCad,Pcbnew,9.0.0*%
%TF.CreationDate,2026-01-06T01:29:00-05:00*%
%TF.ProjectId,NanoFreak,4e616e6f-4672-4656-916b-2e6b69636164,rev?*%
%TF.SameCoordinates,Original*%
%TF.FileFunction,Paste,Top*%
%TF.FilePolarity,Positive*%
%FSLAX46Y46*%
G04 Gerber Fmt 4.6, Leading zero omitted, Abs format (unit mm)*
G04 Created by KiCad (PCBNEW 9.0.0) date 2026-01-06 01:29:00*
%MOMM*%
%LPD*%
G01*
G04 APERTURE LIST*
G04 Aperture macros list*
%AMRoundRect*
0 Rectangle with rounded corners*
0 $1 Rounding radius*
0 $2 $3 $4 $5 $6 $7 $8 $9 X,Y pos of 4 corners*
0 Add a 4 corners polygon primitive as box body*
4,1,4,$2,$3,$4,$5,$6,$7,$8,$9,$2,$3,0*
0 Add four circle primitives for the rounded corners*
1,1,$1+$1,$2,$3*
1,1,$1+$1,$4,$5*
1,1,$1+$1,$6,$7*
1,1,$1+$1,$8,$9*
0 Add four rect primitives between the rounded corners*
20,1,$1+$1,$2,$3,$4,$5,0*
20,1,$1+$1,$4,$5,$6,$7,0*
20,1,$1+$1,$6,$7,$8,$9,0*
20,1,$1+$1,$8,$9,$2,$3,0*%
%AMFreePoly0*
4,1,9,3.862500,-0.866500,0.737500,-0.866500,0.737500,-0.450000,-0.737500,-0.450000,-0.737500,0.450000,0.737500,0.450000,0.737500,0.866500,3.862500,0.866500,3.862500,-0.866500,3.862500,-0.866500,$1*%
G04 Aperture macros list end*
%ADD10RoundRect,0.200000X0.200000X0.275000X-0.200000X0.275000X-0.200000X-0.275000X0.200000X-0.275000X0*%
%ADD11RoundRect,0.200000X0.275000X-0.200000X0.275000X0.200000X-0.275000X0.200000X-0.275000X-0.200000X0*%
%ADD12RoundRect,0.200000X-0.200000X-0.275000X0.200000X-0.275000X0.200000X0.275000X-0.200000X0.275000X0*%
%ADD13RoundRect,0.150000X0.875000X0.150000X-0.875000X0.150000X-0.875000X-0.150000X0.875000X-0.150000X0*%
%ADD14RoundRect,0.100000X-0.637500X-0.100000X0.637500X-0.100000X0.637500X0.100000X-0.637500X0.100000X0*%
%ADD15RoundRect,0.237500X-0.237500X0.300000X-0.237500X-0.300000X0.237500X-0.300000X0.237500X0.300000X0*%
%ADD16RoundRect,0.237500X0.300000X0.237500X-0.300000X0.237500X-0.300000X-0.237500X0.300000X-0.237500X0*%
%ADD17RoundRect,0.237500X0.237500X-0.287500X0.237500X0.287500X-0.237500X0.287500X-0.237500X-0.287500X0*%
%ADD18RoundRect,0.237500X-0.237500X0.287500X-0.237500X-0.287500X0.237500X-0.287500X0.237500X0.287500X0*%
%ADD19R,0.900000X1.000000*%
%ADD20RoundRect,0.200000X-0.275000X0.200000X-0.275000X-0.200000X0.275000X-0.200000X0.275000X0.200000X0*%
%ADD21RoundRect,0.225000X0.225000X-0.425000X0.225000X0.425000X-0.225000X0.425000X-0.225000X-0.425000X0*%
%ADD22FreePoly0,90.000000*%
%ADD23RoundRect,0.237500X-0.300000X-0.237500X0.300000X-0.237500X0.300000X0.237500X-0.300000X0.237500X0*%
%ADD24R,0.700000X1.200000*%
%ADD25R,1.000000X0.800000*%
%ADD26R,1.000000X1.200000*%
%ADD27R,1.000000X2.800000*%
%ADD28R,1.300000X1.900000*%
%ADD29R,1.000000X0.900000*%
%ADD30RoundRect,0.250000X-0.255000X-0.255000X0.255000X-0.255000X0.255000X0.255000X-0.255000X0.255000X0*%
%ADD31RoundRect,0.062500X-0.350000X-0.062500X0.350000X-0.062500X0.350000X0.062500X-0.350000X0.062500X0*%
%ADD32RoundRect,0.062500X-0.062500X-0.350000X0.062500X-0.350000X0.062500X0.350000X-0.062500X0.350000X0*%
%ADD33R,2.500000X2.500000*%
%ADD34RoundRect,0.237500X0.250000X0.237500X-0.250000X0.237500X-0.250000X-0.237500X0.250000X-0.237500X0*%
%ADD35R,0.700000X1.500000*%
G04 APERTURE END LIST*
D10*
%TO.C,R9*%
X165325000Y-44000000D03*
X163675000Y-44000000D03*
%TD*%
%TO.C,R16*%
X91500000Y-34500000D03*
X89850000Y-34500000D03*
%TD*%
D11*
%TO.C,R18*%
X88000000Y-40650000D03*
X88000000Y-39000000D03*
%TD*%
%TO.C,R23*%
X107145000Y-42825000D03*
X107145000Y-41175000D03*
%TD*%
D12*
%TO.C,R21*%
X119350000Y-29500000D03*
X121000000Y-29500000D03*
%TD*%
D13*
%TO.C,U5*%
X152530000Y-96390000D03*
X152530000Y-95120000D03*
X152530000Y-93850000D03*
X152530000Y-92580000D03*
X152530000Y-91310000D03*
X152530000Y-90040000D03*
X152530000Y-88770000D03*
X152530000Y-87500000D03*
X152530000Y-86230000D03*
X152530000Y-84960000D03*
X152530000Y-83690000D03*
X152530000Y-82420000D03*
X152530000Y-81150000D03*
X152530000Y-79880000D03*
X143230000Y-79880000D03*
X143230000Y-81150000D03*
X143230000Y-82420000D03*
X143230000Y-83690000D03*
X143230000Y-84960000D03*
X143230000Y-86230000D03*
X143230000Y-87500000D03*
X143230000Y-88770000D03*
X143230000Y-90040000D03*
X143230000Y-91310000D03*
X143230000Y-92580000D03*
X143230000Y-93850000D03*
X143230000Y-95120000D03*
X143230000Y-96390000D03*
%TD*%
D14*
%TO.C,U2*%
X155137500Y-39575000D03*
X155137500Y-40225000D03*
X155137500Y-40875000D03*
X155137500Y-41525000D03*
X155137500Y-42175000D03*
X155137500Y-42825000D03*
X155137500Y-43475000D03*
X155137500Y-44125000D03*
X155137500Y-44775000D03*
X155137500Y-45425000D03*
X160862500Y-45425000D03*
X160862500Y-44775000D03*
X160862500Y-44125000D03*
X160862500Y-43475000D03*
X160862500Y-42825000D03*
X160862500Y-42175000D03*
X160862500Y-41525000D03*
X160862500Y-40875000D03*
X160862500Y-40225000D03*
X160862500Y-39575000D03*
%TD*%
D15*
%TO.C,C9*%
X152500000Y-36137500D03*
X152500000Y-37862500D03*
%TD*%
%TO.C,C4*%
X155000000Y-36137500D03*
X155000000Y-37862500D03*
%TD*%
D11*
%TO.C,R26*%
X104145000Y-42825000D03*
X104145000Y-41175000D03*
%TD*%
D16*
%TO.C,C8*%
X152362500Y-41500000D03*
X150637500Y-41500000D03*
%TD*%
D17*
%TO.C,D4*%
X135500000Y-29000000D03*
X135500000Y-27250000D03*
%TD*%
D18*
%TO.C,D1*%
X83000000Y-42750000D03*
X83000000Y-44500000D03*
%TD*%
D12*
%TO.C,R3*%
X138380000Y-82635000D03*
X140030000Y-82635000D03*
%TD*%
D19*
%TO.C,SW17*%
X79450000Y-57200000D03*
X83550000Y-57200000D03*
X79450000Y-58800000D03*
X83550000Y-58800000D03*
%TD*%
D16*
%TO.C,C2*%
X157605000Y-85135000D03*
X155880000Y-85135000D03*
%TD*%
D11*
%TO.C,R27*%
X112645000Y-42825000D03*
X112645000Y-41175000D03*
%TD*%
D19*
%TO.C,SW4*%
X79450000Y-81500000D03*
X83550000Y-81500000D03*
X79450000Y-83100000D03*
X83550000Y-83100000D03*
%TD*%
D12*
%TO.C,R28*%
X97120000Y-58000000D03*
X98770000Y-58000000D03*
%TD*%
D20*
%TO.C,R15*%
X83500000Y-39000000D03*
X83500000Y-40650000D03*
%TD*%
%TO.C,R25*%
X111145000Y-41175000D03*
X111145000Y-42825000D03*
%TD*%
D16*
%TO.C,C13*%
X83500000Y-28775000D03*
X81775000Y-28775000D03*
%TD*%
D20*
%TO.C,R13*%
X85000000Y-39000000D03*
X85000000Y-40650000D03*
%TD*%
D21*
%TO.C,U6*%
X82000000Y-26725000D03*
D22*
X83500000Y-26637500D03*
D21*
X85000000Y-26725000D03*
%TD*%
D23*
%TO.C,C10*%
X163637500Y-39000000D03*
X165362500Y-39000000D03*
%TD*%
D24*
%TO.C,J3*%
X104900000Y-37690000D03*
X106000000Y-37690000D03*
X107100000Y-37690000D03*
X108200000Y-37690000D03*
X109300000Y-37690000D03*
X110400000Y-37690000D03*
X111500000Y-37690000D03*
X112600000Y-37690000D03*
X113550000Y-37690000D03*
D25*
X114500000Y-27190000D03*
D26*
X114500000Y-33390000D03*
D27*
X114500000Y-23040000D03*
D26*
X103350000Y-37690000D03*
D28*
X101000000Y-22590000D03*
%TD*%
D16*
%TO.C,C1*%
X140105000Y-85635000D03*
X138380000Y-85635000D03*
%TD*%
D12*
%TO.C,R20*%
X119350000Y-27500000D03*
X121000000Y-27500000D03*
%TD*%
D18*
%TO.C,D2*%
X87000000Y-42750000D03*
X87000000Y-44500000D03*
%TD*%
D29*
%TO.C,SW3*%
X230150000Y-48850000D03*
X230150000Y-44750000D03*
X231750000Y-48850000D03*
X231750000Y-44750000D03*
%TD*%
D11*
%TO.C,R19*%
X135500000Y-33150000D03*
X135500000Y-31500000D03*
%TD*%
D16*
%TO.C,C6*%
X152362500Y-46000000D03*
X150637500Y-46000000D03*
%TD*%
D12*
%TO.C,R12*%
X97120000Y-63500000D03*
X98770000Y-63500000D03*
%TD*%
D16*
%TO.C,C12*%
X81362500Y-34000000D03*
X79637500Y-34000000D03*
%TD*%
D30*
%TO.C,U3*%
X84980000Y-34132500D03*
X84980000Y-35382500D03*
X86230000Y-34132500D03*
X86230000Y-35382500D03*
D31*
X83667500Y-33757500D03*
X83667500Y-34257500D03*
X83667500Y-34757500D03*
X83667500Y-35257500D03*
X83667500Y-35757500D03*
D32*
X84605000Y-36695000D03*
X85105000Y-36695000D03*
X85605000Y-36695000D03*
X86105000Y-36695000D03*
X86605000Y-36695000D03*
D31*
X87542500Y-35757500D03*
X87542500Y-35257500D03*
X87542500Y-34757500D03*
X87542500Y-34257500D03*
X87542500Y-33757500D03*
D32*
X86605000Y-32820000D03*
X86105000Y-32820000D03*
X85605000Y-32820000D03*
X85105000Y-32820000D03*
X84605000Y-32820000D03*
D33*
X85605000Y-34757500D03*
%TD*%
D15*
%TO.C,C3*%
X165000000Y-35637500D03*
X165000000Y-37362500D03*
%TD*%
D34*
%TO.C,TH1*%
X80912500Y-37000000D03*
X79087500Y-37000000D03*
%TD*%
D10*
%TO.C,R30*%
X165325000Y-42500000D03*
X163675000Y-42500000D03*
%TD*%
D12*
%TO.C,R5*%
X155880000Y-80635000D03*
X157530000Y-80635000D03*
%TD*%
D23*
%TO.C,C15*%
X85275000Y-28775000D03*
X87000000Y-28775000D03*
%TD*%
D10*
%TO.C,R7*%
X152325000Y-43000000D03*
X150675000Y-43000000D03*
%TD*%
D25*
%TO.C,SW18*%
X41800000Y-24280000D03*
X41800000Y-22070000D03*
X34500000Y-24280000D03*
X34500000Y-22070000D03*
D35*
X40400000Y-24930000D03*
X37400000Y-24930000D03*
X35900000Y-24930000D03*
%TD*%
D10*
%TO.C,R10*%
X165325000Y-45500000D03*
X163675000Y-45500000D03*
%TD*%
D23*
%TO.C,C7*%
X150637500Y-40000000D03*
X152362500Y-40000000D03*
%TD*%
D11*
%TO.C,R24*%
X105645000Y-42825000D03*
X105645000Y-41175000D03*
%TD*%
D16*
%TO.C,C5*%
X152362500Y-47500000D03*
X150637500Y-47500000D03*
%TD*%
D10*
%TO.C,R4*%
X140030000Y-84135000D03*
X138380000Y-84135000D03*
%TD*%
D12*
%TO.C,R22*%
X79675000Y-35500000D03*
X81325000Y-35500000D03*
%TD*%
%TO.C,R2*%
X138380000Y-81135000D03*
X140030000Y-81135000D03*
%TD*%
D20*
%TO.C,R14*%
X86500000Y-39000000D03*
X86500000Y-40650000D03*
%TD*%
D10*
%TO.C,R8*%
X152325000Y-44500000D03*
X150675000Y-44500000D03*
%TD*%
D16*
%TO.C,C14*%
X83500000Y-30775000D03*
X81775000Y-30775000D03*
%TD*%
D18*
%TO.C,D3*%
X85000000Y-42750000D03*
X85000000Y-44500000D03*
%TD*%
D12*
%TO.C,R1*%
X138380000Y-79635000D03*
X140030000Y-79635000D03*
%TD*%
%TO.C,R6*%
X155880000Y-82635000D03*
X157530000Y-82635000D03*
%TD*%
D19*
%TO.C,SW2*%
X79450000Y-72200000D03*
X83550000Y-72200000D03*
X79450000Y-73800000D03*
X83550000Y-73800000D03*
%TD*%
D23*
%TO.C,C18*%
X163637500Y-41000000D03*
X165362500Y-41000000D03*
%TD*%
%TO.C,C11*%
X89775000Y-33000000D03*
X91500000Y-33000000D03*
%TD*%
D10*
%TO.C,R17*%
X91500000Y-36000000D03*
X89850000Y-36000000D03*
%TD*%
%TO.C,R11*%
X165325000Y-47000000D03*
X163675000Y-47000000D03*
%TD*%
D12*
%TO.C,R29*%
X97120000Y-52500000D03*
X98770000Y-52500000D03*
%TD*%
M02*
