%TF.GenerationSoftware,KiCad,Pcbnew,9.0.0*%
%TF.CreationDate,2026-01-06T01:29:00-05:00*%
%TF.ProjectId,NanoFreak,4e616e6f-4672-4656-916b-2e6b69636164,rev?*%
%TF.SameCoordinates,Original*%
%TF.FileFunction,Profile,NP*%
%FSLAX46Y46*%
G04 Gerber Fmt 4.6, Leading zero omitted, Abs format (unit mm)*
G04 Created by KiCad (PCBNEW 9.0.0) date 2026-01-06 01:29:00*
%MOMM*%
%LPD*%
G01*
G04 APERTURE LIST*
%TA.AperFunction,Profile*%
%ADD10C,0.050000*%
%TD*%
%TA.AperFunction,Profile*%
%ADD11C,0.120000*%
%TD*%
G04 APERTURE END LIST*
D10*
X14500000Y-139500000D02*
X244000000Y-139500000D01*
X244000000Y-21000000D02*
X166730000Y-21000000D01*
X10500000Y-139500000D02*
X14500000Y-139500000D01*
X153730000Y-21000000D02*
X150000000Y-21000000D01*
X137000000Y-21000000D02*
X14500000Y-21000000D01*
X10500000Y-21000000D02*
X10500000Y-139500000D01*
X14500000Y-21000000D02*
X10500000Y-21000000D01*
X244000000Y-139500000D02*
X244000000Y-21000000D01*
D11*
%TO.C,J2*%
X141300000Y-21000000D02*
X137000000Y-21000000D01*
X141300000Y-22000000D02*
X141300000Y-21000000D01*
X141700000Y-22400000D02*
X145300000Y-22400000D01*
X145700000Y-21000000D02*
X150000000Y-21000000D01*
X145700000Y-22000000D02*
X145700000Y-21000000D01*
X141700000Y-22400000D02*
G75*
G02*
X141300000Y-22000000I0J400000D01*
G01*
X145700000Y-22000000D02*
G75*
G02*
X145300000Y-22400000I-400001J1D01*
G01*
%TO.C,J1*%
X158030000Y-21000000D02*
X153730000Y-21000000D01*
X158030000Y-22000000D02*
X158030000Y-21000000D01*
X158430000Y-22400000D02*
X162030000Y-22400000D01*
X162430000Y-21000000D02*
X166730000Y-21000000D01*
X162430000Y-22000000D02*
X162430000Y-21000000D01*
X158430000Y-22400000D02*
G75*
G02*
X158030000Y-22000000I0J400000D01*
G01*
X162430000Y-22000000D02*
G75*
G02*
X162030000Y-22400000I-400001J1D01*
G01*
%TD*%
M02*
